<?xml version="1.0" encoding="UTF-8" standalone="no"?>
<!-- Generator: Adobe Illustrator 16.0.0, SVG Export Plug-In . SVG Version: 6.00 Build 0)  -->

<svg
   xmlns:dc="http://purl.org/dc/elements/1.1/"
   xmlns:cc="http://creativecommons.org/ns#"
   xmlns:rdf="http://www.w3.org/1999/02/22-rdf-syntax-ns#"
   xmlns:svg="http://www.w3.org/2000/svg"
   xmlns="http://www.w3.org/2000/svg"
   xmlns:sodipodi="http://sodipodi.sourceforge.net/DTD/sodipodi-0.dtd"
   xmlns:inkscape="http://www.inkscape.org/namespaces/inkscape"
   version="1.1"
   id="Ebene_1"
   x="0px"
   y="0px"
   width="450"
   height="90"
   viewBox="0 0 450 90"
   enable-background="new 0 0 340 75"
   xml:space="preserve"
   inkscape:version="0.91 r13725"
   sodipodi:docname="yfu_logo.svg"><metadata
     id="metadata129"><rdf:RDF><cc:Work
         rdf:about=""><dc:format>image/svg+xml</dc:format><dc:type
           rdf:resource="http://purl.org/dc/dcmitype/StillImage" /><dc:title></dc:title></cc:Work></rdf:RDF></metadata><defs
     id="defs127" /><sodipodi:namedview
     pagecolor="#ffffff"
     bordercolor="#666666"
     borderopacity="1"
     objecttolerance="10"
     gridtolerance="10"
     guidetolerance="10"
     inkscape:pageopacity="0"
     inkscape:pageshadow="2"
     inkscape:window-width="1668"
     inkscape:window-height="881"
     id="namedview125"
     showgrid="false"
     inkscape:zoom="1.0294118"
     inkscape:cx="136.49843"
     inkscape:cy="37.5"
     inkscape:window-x="0"
     inkscape:window-y="0"
     inkscape:window-maximized="0"
     inkscape:current-layer="Ebene_1" /><g
     id="g3"
     transform="translate(8,7.5)"><g
       id="g5"><path
         d="m 21.926,31.168 c 0.318,0.396 0.356,0.949 0.098,1.389 -1.695,2.878 -3.098,6.735 -2.405,7.949 0.059,0.101 0.232,0.406 1.116,0.406 4.067,0 7.664,-6.807 8.705,-9.431 0.238,-0.603 0.905,-0.915 1.522,-0.711 0.615,0.204 0.966,0.851 0.801,1.476 -0.018,0.064 -1.15,4.346 -2.354,8.765 1.633,-1.403 3.449,-2.861 5.468,-4.368 0.119,-0.09 0.243,-0.185 0.367,-0.286 -0.199,-0.093 -0.411,-0.176 -0.633,-0.245 -0.072,-0.021 -0.147,-0.042 -0.22,-0.062 -0.641,-0.19 -1.01,-0.862 -0.826,-1.508 0.183,-0.645 0.85,-1.023 1.496,-0.848 0.08,0.02 0.16,0.044 0.241,0.069 0.485,0.132 0.971,0.228 1.459,0.292 0.936,-2.736 2.044,-5.86 3.352,-9.429 0.176,-0.478 0.317,-0.865 0.416,-1.142 2.039,-5.637 4.145,-8.829 6.255,-9.485 0.904,-0.279 1.801,-0.126 2.597,0.444 0.409,0.294 0.896,0.884 0.907,2.026 0.033,3.393 -4.628,11.676 -9.289,17.407 3.992,-0.772 7.154,-2.917 7.198,-2.951 0.476,-0.325 1.114,-0.279 1.535,0.117 0.418,0.393 0.509,1.025 0.214,1.521 -1.393,2.323 -3.083,6.413 -2.289,7.811 0.075,0.132 0.305,0.538 1.444,0.538 4.245,0 7.315,-6.129 8.325,-8.958 0.085,-0.259 0.143,-0.413 0.15,-0.437 0.228,-0.628 0.915,-0.959 1.548,-0.742 0.633,0.217 0.974,0.899 0.768,1.535 -0.013,0.046 -0.065,0.199 -0.15,0.437 -0.912,2.716 -1.69,6.891 -0.636,8.056 0.302,0.336 0.896,0.396 1.76,0.182 4.838,-1.205 9.777,-2.709 14.115,-4.289 C 74.551,16.358 57.942,0 37.501,0 16.854,0 0.105,16.691 0.008,37.314 6.31,35.396 20.441,30.819 20.593,30.768 c 0.483,-0.155 1.013,0.003 1.333,0.4 z"
         id="path7"
         inkscape:connector-curvature="0"
         style="fill:#642869" /><path
         d="m 57.285,42.443 c -0.661,-0.733 -1.033,-1.767 -1.121,-3.123 -1.733,2.188 -4.083,4.041 -7.064,4.041 -2.122,0 -3.116,-0.969 -3.576,-1.78 -0.833,-1.471 -0.665,-3.62 0.511,-6.581 0.024,-0.06 0.047,-0.119 0.07,-0.179 -1.879,0.824 -4.364,1.632 -7.059,1.763 0.4,0.641 0.708,1.369 0.922,2.184 1.333,5.072 -1.382,12.355 -3.86,14.792 -1.085,1.064 -2.007,1.096 -2.591,0.931 -0.478,-0.135 -0.874,-0.468 -1.116,-0.944 -0.6,-1.169 -0.628,-3.942 2.496,-13.844 -2.643,2.042 -4.853,3.944 -6.697,5.695 -0.191,0.683 -0.375,1.331 -0.545,1.922 -0.122,0.43 -0.279,1.14 -0.46,1.961 -1.116,5.064 -2.437,10.149 -5.172,11.848 -0.607,0.377 -1.266,0.568 -1.943,0.568 -0.297,0 -0.599,-0.037 -0.899,-0.111 -1.067,-0.267 -1.816,-1.101 -2.057,-2.292 -0.571,-2.832 1.661,-8.17 8.898,-15.192 0.377,-1.356 0.778,-2.824 1.17,-4.261 -1.744,1.953 -3.93,3.521 -6.457,3.521 -1.904,0 -2.813,-0.895 -3.243,-1.644 -1.137,-1.992 -0.057,-5.31 1.026,-7.704 C 13.812,35.532 4.47,38.534 0.082,39.853 1.299,59.467 17.583,75 37.501,75 57.606,75 74.01,59.178 74.954,39.306 c -4.203,1.495 -8.897,2.907 -13.498,4.056 -2.253,0.56 -3.512,-0.189 -4.171,-0.919 z"
         id="path9"
         inkscape:connector-curvature="0"
         style="fill:#642869" /><path
         d="m 19.523,58.811 c 0.072,0.354 0.193,0.385 0.245,0.397 0.349,0.085 0.644,0.035 0.961,-0.16 2.042,-1.266 3.367,-7.099 4.028,-10.09 -4.609,5.247 -5.471,8.664 -5.234,9.853 z"
         id="path11"
         inkscape:connector-curvature="0"
         style="fill:#642869" /><path
         d="m 37.258,40.341 c -2.287,7.255 -2.718,10.209 -2.744,11.387 1.318,-1.385 3.452,-6.015 3.354,-10.281 -0.018,-0.791 -0.111,-1.501 -0.284,-2.126 -0.108,0.341 -0.217,0.682 -0.326,1.02 z"
         id="path13"
         inkscape:connector-curvature="0"
         style="fill:#642869" /><path
         d="m 47.836,16.363 c -0.072,-0.036 -0.132,-0.052 -0.186,-0.052 -0.052,0 -0.095,0.013 -0.142,0.026 -0.933,0.29 -2.716,2.553 -4.677,7.979 -0.101,0.279 -0.246,0.669 -0.421,1.152 -0.434,1.186 -1.059,2.892 -1.77,4.886 1.075,-1.452 2.147,-3.041 3.157,-4.692 3.368,-5.508 4.158,-8.544 4.039,-9.299 z"
         id="path15"
         inkscape:connector-curvature="0"
         style="fill:#642869" /></g><path
       d="m 75,37.499 c 0,-0.271 -0.014,-0.537 -0.021,-0.804 l 0,0 c -4.338,1.58 -9.276,3.084 -14.115,4.289 -0.863,0.215 -1.458,0.154 -1.76,-0.182 -1.054,-1.165 -0.276,-5.34 0.636,-8.056 0.085,-0.237 0.137,-0.391 0.15,-0.437 0.207,-0.636 -0.134,-1.317 -0.768,-1.535 -0.633,-0.217 -1.32,0.113 -1.548,0.742 -0.007,0.023 -0.064,0.178 -0.15,0.437 -1.01,2.829 -4.08,8.958 -8.325,8.958 -1.14,0 -1.37,-0.406 -1.444,-0.538 -0.793,-1.397 0.896,-5.487 2.289,-7.811 0.294,-0.496 0.204,-1.129 -0.214,-1.521 -0.421,-0.396 -1.06,-0.442 -1.535,-0.117 -0.044,0.034 -3.206,2.178 -7.198,2.951 4.661,-5.73 9.322,-14.014 9.289,-17.407 -0.011,-1.142 -0.499,-1.731 -0.907,-2.026 -0.796,-0.571 -1.692,-0.724 -2.597,-0.444 -2.111,0.656 -4.216,3.848 -6.255,9.485 -0.098,0.277 -0.24,0.664 -0.416,1.142 -1.308,3.568 -2.416,6.692 -3.352,9.429 -0.488,-0.064 -0.974,-0.16 -1.459,-0.292 -0.081,-0.025 -0.161,-0.05 -0.241,-0.069 -0.646,-0.176 -1.312,0.203 -1.496,0.848 -0.184,0.646 0.186,1.317 0.826,1.508 0.072,0.021 0.148,0.042 0.22,0.062 0.223,0.069 0.435,0.152 0.633,0.245 -0.124,0.102 -0.248,0.196 -0.367,0.286 -2.019,1.507 -3.835,2.965 -5.468,4.368 1.204,-4.419 2.336,-8.7 2.354,-8.765 0.165,-0.625 -0.186,-1.271 -0.801,-1.476 -0.617,-0.204 -1.284,0.108 -1.522,0.711 -1.041,2.624 -4.638,9.431 -8.705,9.431 -0.884,0 -1.057,-0.306 -1.116,-0.406 -0.693,-1.214 0.71,-5.071 2.405,-7.949 0.258,-0.439 0.22,-0.993 -0.098,-1.389 -0.32,-0.397 -0.85,-0.555 -1.333,-0.4 C 20.44,30.82 6.31,35.396 0.008,37.314 L 0.006,37.316 C 0.005,37.378 0,37.438 0,37.499 c 0,0.072 0.008,0.143 0.008,0.215 0.005,0.699 0.03,1.395 0.072,2.086 0,0.018 0,0.034 0.001,0.053 l 0.001,0 c 4.387,-1.319 13.729,-4.321 18.436,-5.839 -1.083,2.395 -2.163,5.712 -1.026,7.704 0.429,0.749 1.338,1.644 3.243,1.644 2.527,0 4.713,-1.568 6.457,-3.521 -0.393,1.437 -0.793,2.904 -1.17,4.261 -7.237,7.022 -9.47,12.36 -8.898,15.192 0.24,1.191 0.989,2.025 2.057,2.292 0.3,0.074 0.602,0.111 0.899,0.111 0.677,0 1.336,-0.191 1.943,-0.568 2.736,-1.698 4.057,-6.783 5.172,-11.848 0.181,-0.821 0.338,-1.531 0.46,-1.961 0.17,-0.591 0.354,-1.239 0.545,-1.922 1.845,-1.751 4.054,-3.653 6.697,-5.695 -3.124,9.901 -3.096,12.675 -2.496,13.844 0.243,0.477 0.638,0.81 1.116,0.944 0.584,0.165 1.506,0.134 2.591,-0.931 2.478,-2.437 5.194,-9.72 3.86,-14.792 -0.214,-0.814 -0.522,-1.543 -0.922,-2.184 2.695,-0.131 5.18,-0.938 7.059,-1.763 -0.023,0.06 -0.046,0.119 -0.07,0.179 -1.175,2.961 -1.343,5.11 -0.511,6.581 0.459,0.812 1.454,1.78 3.576,1.78 2.981,0 5.331,-1.853 7.064,-4.041 0.088,1.356 0.46,2.39 1.121,3.123 0.659,0.729 1.917,1.479 4.171,0.918 4.6,-1.148 9.295,-2.561 13.498,-4.056 0.001,0 0.001,0 0.001,0 C 74.983,38.706 75,38.104 75,37.499 Z M 20.729,59.048 c -0.317,0.195 -0.612,0.245 -0.961,0.16 -0.052,-0.013 -0.173,-0.044 -0.245,-0.397 -0.238,-1.188 0.625,-4.605 5.234,-9.853 -0.66,2.991 -1.986,8.824 -4.028,10.09 z m 13.785,-7.32 c 0.026,-1.178 0.458,-4.132 2.744,-11.387 0.109,-0.338 0.217,-0.679 0.326,-1.021 0.173,0.625 0.266,1.335 0.284,2.126 0.098,4.267 -2.036,8.897 -3.354,10.282 z m 7.896,-26.26 c 0.176,-0.483 0.321,-0.873 0.421,-1.152 1.961,-5.426 3.744,-7.689 4.677,-7.979 0.046,-0.013 0.09,-0.026 0.142,-0.026 0.054,0 0.114,0.016 0.186,0.052 0.119,0.754 -0.671,3.791 -4.039,9.299 -1.01,1.651 -2.082,3.24 -3.157,4.692 0.711,-1.994 1.337,-3.7 1.77,-4.886 z"
       id="path17"
       inkscape:connector-curvature="0"
       style="fill:#ffffff" /><g
       id="g19"><path
         d="m 94.009,25.627 c 0.636,1.357 0.757,2.202 0.757,2.202 l 0.068,0 c 0,0 0.104,-0.877 0.739,-2.185 l 1.169,-2.425 2.459,0 -3.233,6.759 0,3.371 -2.338,0 0,-3.371 -3.458,-6.759 2.648,0 1.189,2.408 z"
         id="path21"
         inkscape:connector-curvature="0"
         style="fill:#555555" /><path
         d="m 99.581,28.292 c 0,-3.405 1.806,-5.28 4.798,-5.28 2.992,0 4.815,1.875 4.815,5.28 0,3.389 -1.823,5.263 -4.815,5.263 -2.992,10e-4 -4.798,-1.873 -4.798,-5.263 z m 2.425,0.036 c 0,1.995 0.774,3.215 2.373,3.215 1.6,0 2.391,-1.221 2.391,-3.215 0,-2.013 -0.791,-3.234 -2.391,-3.234 -1.583,0 -2.373,1.221 -2.373,3.234 z"
         id="path23"
         inkscape:connector-curvature="0"
         style="fill:#555555" /><path
         d="m 119.307,23.219 0,6.741 c 0,2.735 -1.926,3.595 -4.179,3.595 -2.237,0 -4.18,-0.86 -4.18,-3.595 l 0,-6.741 2.34,0 0,6.088 c 0,1.445 0.377,2.304 1.84,2.304 1.479,0 1.857,-0.859 1.857,-2.321 l 0,-6.071 2.322,0 z"
         id="path25"
         inkscape:connector-curvature="0"
         style="fill:#555555" /><path
         d="m 123.296,33.35 0,-8.101 -2.769,0 0,-2.029 7.895,0 0,2.029 -2.822,0 0,8.101 -2.304,0 z"
         id="path27"
         inkscape:connector-curvature="0"
         style="fill:#555555" /><path
         d="m 129.917,33.35 0,-10.13 2.339,0 0,3.973 3.886,0 0,-3.973 2.339,0 0,10.13 -2.339,0 0,-4.128 -3.886,0 0,4.128 -2.339,0 z"
         id="path29"
         inkscape:connector-curvature="0"
         style="fill:#555555" /><path
         d="m 144.931,33.35 0,-10.13 6.604,0 0,2.029 -4.265,0 0,2.425 3.731,0 0,1.943 -3.731,0 0,3.732 -2.339,0 z"
         id="path31"
         inkscape:connector-curvature="0"
         style="fill:#555555" /><path
         d="m 152.721,28.292 c 0,-3.405 1.807,-5.28 4.798,-5.28 2.992,0 4.816,1.875 4.816,5.28 0,3.389 -1.824,5.263 -4.816,5.263 -2.992,10e-4 -4.798,-1.873 -4.798,-5.263 z m 2.425,0.036 c 0,1.995 0.774,3.215 2.373,3.215 1.6,0 2.39,-1.221 2.39,-3.215 0,-2.013 -0.79,-3.234 -2.39,-3.234 -1.582,0 -2.373,1.221 -2.373,3.234 z"
         id="path33"
         inkscape:connector-curvature="0"
         style="fill:#555555" /><path
         d="m 169.986,33.35 c -0.309,-0.241 -0.43,-0.619 -0.531,-1.049 l -0.379,-1.515 c -0.207,-0.859 -0.603,-1.014 -1.376,-1.014 l -0.997,0 0,3.578 -2.339,0 0,-10.13 3.99,0 c 2.27,0 3.679,0.826 3.679,3.096 0,1.566 -0.91,2.408 -2.218,2.544 l 0,0.035 c 0.929,0.155 1.427,0.55 1.687,1.479 l 0.515,1.892 c 0.103,0.396 0.24,0.74 0.567,1.084 l -2.598,0 z m -3.283,-5.504 1.496,0 c 0.929,0 1.444,-0.361 1.444,-1.324 0,-0.86 -0.482,-1.324 -1.444,-1.324 l -1.496,0 0,2.648 z"
         id="path35"
         inkscape:connector-curvature="0"
         style="fill:#555555" /><path
         d="m 186.256,23.219 0,6.741 c 0,2.735 -1.926,3.595 -4.179,3.595 -2.236,0 -4.181,-0.86 -4.181,-3.595 l 0,-6.741 2.34,0 0,6.088 c 0,1.445 0.378,2.304 1.841,2.304 1.479,0 1.857,-0.859 1.857,-2.321 l 0,-6.071 2.322,0 z"
         id="path37"
         inkscape:connector-curvature="0"
         style="fill:#555555" /><path
         d="m 194.408,28.121 c 0.566,0.774 0.842,1.359 0.842,1.359 l 0.07,0 c 0,0 -0.053,-0.861 -0.053,-2.15 l 0,-4.111 2.339,0 0,10.13 -2.133,0 -3.577,-4.815 c -0.652,-0.86 -0.963,-1.498 -0.963,-1.498 l -0.068,0 c 0,0 0.104,0.826 0.104,2.288 l 0,4.025 -2.34,0 0,-10.13 2.201,0 3.578,4.902 z"
         id="path39"
         inkscape:connector-curvature="0"
         style="fill:#555555" /><path
         d="m 200.255,33.35 0,-10.13 3.731,0 c 2.805,0 4.938,1.393 4.938,4.954 0,3.749 -2.186,5.177 -5.092,5.177 l -3.577,0 z m 3.354,-1.979 c 1.806,0 2.871,-0.757 2.871,-3.062 0,-2.407 -1.065,-3.112 -2.735,-3.112 l -1.151,0 0,6.174 1.015,0 z"
         id="path41"
         inkscape:connector-curvature="0"
         style="fill:#555555" /><path
         d="m 217.745,33.35 -6.793,0 0,-10.13 6.793,0 0,2.029 -4.453,0 0,2.012 3.92,0 0,1.944 -3.92,0 0,2.115 4.453,0 0,2.03 z"
         id="path43"
         inkscape:connector-curvature="0"
         style="fill:#555555" /><path
         d="m 225.553,33.35 c -0.309,-0.241 -0.431,-0.619 -0.532,-1.049 l -0.378,-1.515 c -0.208,-0.859 -0.602,-1.014 -1.376,-1.014 l -0.997,0 0,3.578 -2.34,0 0,-10.13 3.99,0 c 2.27,0 3.679,0.826 3.679,3.096 0,1.566 -0.91,2.408 -2.218,2.544 l 0,0.035 c 0.929,0.155 1.428,0.55 1.687,1.479 l 0.515,1.892 c 0.104,0.396 0.242,0.74 0.567,1.084 l -2.597,0 z m -3.283,-5.504 1.496,0 c 0.928,0 1.443,-0.361 1.443,-1.324 0,-0.86 -0.482,-1.324 -1.443,-1.324 l -1.496,0 0,2.648 z"
         id="path45"
         inkscape:connector-curvature="0"
         style="fill:#555555" /><path
         d="m 231.125,30.133 c 0.188,0.998 0.93,1.633 1.891,1.633 0.774,0 1.342,-0.31 1.342,-0.998 0,-0.653 -0.36,-0.962 -1.685,-1.376 -2.322,-0.739 -3.286,-1.616 -3.286,-3.354 0,-2.287 1.79,-3.043 3.562,-3.043 2.081,0 3.628,0.705 3.834,2.631 l -2.321,0.584 c -0.086,-0.894 -0.757,-1.289 -1.462,-1.289 -0.653,0 -1.17,0.292 -1.17,0.945 0,0.706 0.551,0.981 1.737,1.341 2.133,0.672 3.216,1.394 3.216,3.336 0,2.202 -1.788,3.01 -3.938,3.01 -1.994,0 -3.336,-0.653 -3.852,-2.477 l 2.132,-0.943 z"
         id="path47"
         inkscape:connector-curvature="0"
         style="fill:#555555" /><path
         d="m 240.411,33.35 0,-8.101 -2.769,0 0,-2.029 7.895,0 0,2.029 -2.821,0 0,8.101 -2.305,0 z"
         id="path49"
         inkscape:connector-curvature="0"
         style="fill:#555555" /><path
         d="m 252.021,31.234 -3.835,0 -0.723,2.115 -2.442,0 3.664,-10.13 2.889,0 3.697,10.13 -2.51,0 -0.74,-2.115 z m -3.183,-1.944 2.495,0 -0.414,-1.134 c -0.583,-1.669 -0.791,-2.89 -0.791,-2.89 l -0.067,0 c 0,0 -0.259,1.239 -0.826,2.872 l -0.397,1.152 z"
         id="path51"
         inkscape:connector-curvature="0"
         style="fill:#555555" /><path
         d="m 262.545,28.121 c 0.567,0.774 0.843,1.359 0.843,1.359 l 0.069,0 c 0,0 -0.051,-0.861 -0.051,-2.15 l 0,-4.111 2.337,0 0,10.13 -2.132,0 -3.577,-4.815 c -0.653,-0.86 -0.963,-1.498 -0.963,-1.498 l -0.068,0 c 0,0 0.103,0.826 0.103,2.288 l 0,4.025 -2.339,0 0,-10.13 2.201,0 3.577,4.902 z"
         id="path53"
         inkscape:connector-curvature="0"
         style="fill:#555555" /><path
         d="m 268.393,33.35 0,-10.13 3.732,0 c 2.803,0 4.936,1.393 4.936,4.954 0,3.749 -2.184,5.177 -5.092,5.177 l -3.576,0 z m 3.353,-1.979 c 1.807,0 2.872,-0.757 2.872,-3.062 0,-2.407 -1.065,-3.112 -2.734,-3.112 l -1.151,0 0,6.174 1.013,0 z"
         id="path55"
         inkscape:connector-curvature="0"
         style="fill:#555555" /><path
         d="m 281.429,23.219 0,10.13 -2.339,0 0,-10.13 2.339,0 z"
         id="path57"
         inkscape:connector-curvature="0"
         style="fill:#555555" /><path
         d="m 289.854,28.121 c 0.567,0.774 0.843,1.359 0.843,1.359 l 0.07,0 c 0,0 -0.053,-0.861 -0.053,-2.15 l 0,-4.111 2.339,0 0,10.13 -2.134,0 -3.576,-4.815 c -0.653,-0.86 -0.963,-1.498 -0.963,-1.498 l -0.068,0 c 0,0 0.104,0.826 0.104,2.288 l 0,4.025 -2.34,0 0,-10.13 2.201,0 3.577,4.902 z"
         id="path59"
         inkscape:connector-curvature="0"
         style="fill:#555555" /><path
         d="m 304.216,27.949 0,5.4 -1.446,0 -0.377,-1.136 c -0.517,0.912 -1.547,1.342 -2.787,1.342 -2.632,0 -4.522,-1.669 -4.522,-5.228 0,-3.389 1.857,-5.315 4.954,-5.315 2.028,0 3.457,0.945 4.126,2.563 l -2.253,1.101 c -0.326,-1.067 -1.015,-1.599 -1.96,-1.599 -1.083,0 -2.459,0.739 -2.459,3.284 0,1.824 0.671,3.286 2.493,3.286 1.359,0 1.995,-0.637 1.995,-1.497 l 0,-0.343 -2.134,0 0,-1.858 4.37,0 z"
         id="path61"
         inkscape:connector-curvature="0"
         style="fill:#555555" /></g><g
       id="g63"><path
         d="m 93.665,40.764 0,10.129 -2.339,0 0,-10.129 2.339,0 z"
         id="path65"
         inkscape:connector-curvature="0"
         style="fill:#642869" /><path
         d="m 98.307,44.478 c 0.43,-1.187 1.324,-1.72 2.546,-1.72 1.221,0 2.338,0.722 2.338,2.512 l 0,5.623 -2.305,0 0,-4.764 c 0,-0.878 -0.24,-1.445 -1.065,-1.445 -0.74,0 -1.444,0.414 -1.444,1.842 l 0,4.367 -2.305,0 0,-7.944 1.96,0 0.275,1.529 z"
         id="path67"
         inkscape:connector-curvature="0"
         style="fill:#642869" /><path
         d="m 110.57,50.583 c -0.671,0.346 -1.497,0.517 -2.442,0.517 -1.583,0 -2.615,-0.74 -2.615,-2.563 l 0,-3.817 -1.152,0 0,-1.771 1.168,0 0,-1.687 2.305,-0.275 0,1.962 2.356,0 0,1.771 -2.373,0 0,3.301 c 0,0.844 0.327,1.119 0.962,1.119 0.499,0 0.929,-0.173 1.394,-0.499 l 0.397,1.942 z"
         id="path69"
         inkscape:connector-curvature="0"
         style="fill:#642869" /><path
         d="m 116.589,48.244 1.961,0.671 c -0.413,1.617 -1.841,2.185 -3.405,2.185 -2.27,0 -3.836,-1.496 -3.836,-4.06 0,-2.734 1.479,-4.282 3.871,-4.282 2.252,0 3.354,1.479 3.354,3.526 0,0.344 -0.035,0.705 -0.103,1.031 l -4.902,0 c 0.051,1.221 0.619,2.013 1.668,2.013 0.618,0 1.135,-0.241 1.392,-1.084 z m -0.257,-2.201 c 0.017,-0.104 0.017,-0.172 0.017,-0.275 0,-0.739 -0.43,-1.307 -1.255,-1.307 -0.86,0 -1.411,0.653 -1.496,1.582 l 2.734,0 z"
         id="path71"
         inkscape:connector-curvature="0"
         style="fill:#642869" /><path
         d="m 125.446,45.321 c -0.293,-0.104 -0.534,-0.138 -0.896,-0.138 -0.911,0 -2.028,0.446 -2.028,2.081 l 0,3.628 -2.305,0 0,-7.944 1.995,0 0.275,2.183 c 0.344,-1.376 1.117,-2.476 3.216,-2.354 l -0.257,2.544 z"
         id="path73"
         inkscape:connector-curvature="0"
         style="fill:#642869" /><path
         d="m 129.229,44.478 c 0.43,-1.187 1.324,-1.72 2.546,-1.72 1.22,0 2.338,0.722 2.338,2.512 l 0,5.623 -2.305,0 0,-4.764 c 0,-0.878 -0.24,-1.445 -1.065,-1.445 -0.74,0 -1.444,0.414 -1.444,1.842 l 0,4.367 -2.305,0 0,-7.944 1.96,0 0.275,1.529 z"
         id="path75"
         inkscape:connector-curvature="0"
         style="fill:#642869" /><path
         d="m 142.352,48.485 c 0,0.533 0.223,0.722 0.583,0.722 0.19,0 0.344,-0.051 0.499,-0.12 l 0,1.668 c -0.327,0.207 -0.757,0.293 -1.308,0.293 -1.014,0 -1.633,-0.395 -1.891,-1.256 -0.36,0.98 -1.221,1.308 -2.305,1.308 -1.41,0 -2.338,-0.825 -2.338,-2.185 0,-1.771 1.428,-2.734 4.488,-2.563 l 0,-0.755 c 0,-0.688 -0.292,-1.101 -0.929,-1.101 -0.636,0 -0.963,0.43 -0.997,1.168 l -2.287,-0.43 c 0.12,-1.685 1.547,-2.477 3.371,-2.477 1.978,0 3.113,0.861 3.113,2.632 l 0,3.096 z m -2.271,-0.894 c -1.617,-0.052 -2.184,0.379 -2.184,1.084 0,0.465 0.327,0.791 0.877,0.791 0.601,0 1.307,-0.292 1.307,-1.066 l 0,-0.809 z"
         id="path77"
         inkscape:connector-curvature="0"
         style="fill:#642869" /><path
         d="m 150.107,50.583 c -0.671,0.346 -1.497,0.517 -2.442,0.517 -1.583,0 -2.615,-0.74 -2.615,-2.563 l 0,-3.817 -1.152,0 0,-1.771 1.169,0 0,-1.687 2.304,-0.275 0,1.962 2.356,0 0,1.771 -2.373,0 0,3.301 c 0,0.844 0.327,1.119 0.962,1.119 0.499,0 0.929,-0.173 1.394,-0.499 l 0.397,1.942 z"
         id="path79"
         inkscape:connector-curvature="0"
         style="fill:#642869" /><path
         d="m 152.601,39.181 c 0.808,0 1.428,0.466 1.428,1.342 0,0.843 -0.62,1.308 -1.428,1.308 -0.773,0 -1.395,-0.465 -1.395,-1.308 0,-0.877 0.621,-1.342 1.395,-1.342 z m 1.152,3.767 0,7.944 -2.305,0 0,-7.944 2.305,0 z"
         id="path81"
         inkscape:connector-curvature="0"
         style="fill:#642869" /><path
         d="m 155.402,46.902 c 0,-2.699 1.531,-4.145 3.853,-4.145 2.305,0 3.837,1.445 3.837,4.145 0,2.684 -1.532,4.197 -3.837,4.197 -2.321,0.001 -3.853,-1.513 -3.853,-4.197 z m 2.272,0 c 0,1.651 0.499,2.408 1.581,2.408 1.067,0 1.566,-0.757 1.566,-2.408 0,-1.564 -0.518,-2.303 -1.566,-2.303 -1.066,0.001 -1.581,0.739 -1.581,2.303 z"
         id="path83"
         inkscape:connector-curvature="0"
         style="fill:#642869" /><path
         d="m 166.978,44.478 c 0.429,-1.187 1.323,-1.72 2.546,-1.72 1.221,0 2.338,0.722 2.338,2.512 l 0,5.623 -2.305,0 0,-4.764 c 0,-0.878 -0.239,-1.445 -1.066,-1.445 -0.739,0 -1.443,0.414 -1.443,1.842 l 0,4.367 -2.305,0 0,-7.944 1.959,0 0.276,1.529 z"
         id="path85"
         inkscape:connector-curvature="0"
         style="fill:#642869" /><path
         d="m 180.101,48.485 c 0,0.533 0.223,0.722 0.584,0.722 0.189,0 0.343,-0.051 0.498,-0.12 l 0,1.668 c -0.327,0.207 -0.756,0.293 -1.306,0.293 -1.016,0 -1.635,-0.395 -1.894,-1.256 -0.36,0.98 -1.221,1.308 -2.305,1.308 -1.408,0 -2.338,-0.825 -2.338,-2.185 0,-1.771 1.428,-2.734 4.488,-2.563 l 0,-0.755 c 0,-0.688 -0.292,-1.101 -0.93,-1.101 -0.635,0 -0.961,0.43 -0.997,1.168 l -2.287,-0.43 c 0.121,-1.685 1.549,-2.477 3.371,-2.477 1.978,0 3.114,0.861 3.114,2.632 l 0,3.096 z m -2.272,-0.894 c -1.617,-0.052 -2.184,0.379 -2.184,1.084 0,0.465 0.326,0.791 0.877,0.791 0.603,0 1.307,-0.292 1.307,-1.066 l 0,-0.809 z"
         id="path87"
         inkscape:connector-curvature="0"
         style="fill:#642869" /><path
         d="m 185.93,50.842 c -0.448,0.12 -0.878,0.206 -1.325,0.206 -1.151,0 -2.201,-0.534 -2.201,-2.029 l 0,-9.614 2.305,0 0,8.944 c 0,0.498 0.31,0.687 0.723,0.687 0.207,0 0.412,-0.033 0.618,-0.12 l -0.12,1.926 z"
         id="path89"
         inkscape:connector-curvature="0"
         style="fill:#642869" /><path
         d="m 192.119,48.244 1.962,0.671 c -0.413,1.617 -1.841,2.185 -3.405,2.185 -2.27,0 -3.836,-1.496 -3.836,-4.06 0,-2.734 1.479,-4.282 3.87,-4.282 2.254,0 3.354,1.479 3.354,3.526 0,0.344 -0.035,0.705 -0.104,1.031 l -4.902,0 c 0.053,1.221 0.62,2.013 1.668,2.013 0.621,0 1.137,-0.241 1.393,-1.084 z m -0.256,-2.201 c 0.017,-0.104 0.017,-0.172 0.017,-0.275 0,-0.739 -0.431,-1.307 -1.256,-1.307 -0.86,0 -1.411,0.653 -1.496,1.582 l 2.735,0 z"
         id="path91"
         inkscape:connector-curvature="0"
         style="fill:#642869" /><path
         d="m 200.978,45.321 c -0.294,-0.104 -0.533,-0.138 -0.896,-0.138 -0.911,0 -2.029,0.446 -2.029,2.081 l 0,3.628 -2.304,0 0,-7.944 1.994,0 0.275,2.183 c 0.343,-1.376 1.117,-2.476 3.216,-2.354 l -0.256,2.544 z"
         id="path93"
         inkscape:connector-curvature="0"
         style="fill:#642869" /><path
         d="m 212.259,40.764 0,7.189 c 0,2.304 -1.601,3.146 -3.544,3.146 -1.633,0 -2.803,-0.637 -3.474,-1.943 l 1.721,-1.549 c 0.413,1.016 0.895,1.566 1.719,1.566 0.947,0 1.256,-0.551 1.256,-1.635 l 0,-6.775 2.322,0 z"
         id="path95"
         inkscape:connector-curvature="0"
         style="fill:#642869" /><path
         d="m 219.085,49.414 c -0.275,1.083 -0.997,1.686 -2.459,1.686 -1.409,0 -2.391,-0.722 -2.391,-2.563 l 0,-5.588 2.306,0 0,4.935 c 0,0.946 0.291,1.479 1.082,1.479 0.793,0 1.428,-0.618 1.428,-2.149 l 0,-4.265 2.305,0 0,7.944 -1.995,0 -0.276,-1.479 z"
         id="path97"
         inkscape:connector-curvature="0"
         style="fill:#642869" /><path
         d="m 228.647,43.257 c 0.343,-0.345 0.43,-0.567 0.602,-1.204 l 1.806,0.603 c -0.087,0.773 -0.792,1.307 -1.445,1.495 0.241,0.379 0.361,0.861 0.361,1.411 0,1.841 -1.615,2.734 -3.645,2.734 -0.379,0 -0.774,-0.034 -0.964,-0.103 -0.275,0.172 -0.379,0.396 -0.379,0.653 0,0.274 0.224,0.481 0.637,0.481 l 2.27,0 c 1.789,0 2.804,0.963 2.804,2.339 0,2.27 -2.338,2.855 -4.609,2.855 -1.96,0 -3.715,-0.466 -3.715,-1.995 0,-0.93 0.671,-1.496 2.099,-1.599 -0.79,-0.053 -1.289,-0.706 -1.289,-1.412 0,-0.618 0.412,-1.307 1.341,-1.563 -1.084,-0.431 -1.65,-1.119 -1.65,-2.392 0,-1.84 1.41,-2.804 3.524,-2.804 0.893,0.002 1.667,0.174 2.252,0.501 z m -2.304,9.733 c 1.599,0 2.201,-0.291 2.201,-0.928 0,-0.481 -0.292,-0.671 -0.98,-0.671 l -1.96,0 c -0.653,0 -1.119,0.224 -1.119,0.688 -0.001,0.62 0.636,0.911 1.858,0.911 z m 0.051,-6.208 c 0.791,0 1.222,-0.431 1.222,-1.221 0,-0.842 -0.431,-1.237 -1.222,-1.237 -0.809,0.017 -1.203,0.446 -1.203,1.237 -0.001,0.707 0.394,1.221 1.203,1.221 z"
         id="path99"
         inkscape:connector-curvature="0"
         style="fill:#642869" /><path
         d="m 236.404,48.244 1.96,0.671 c -0.413,1.617 -1.84,2.185 -3.405,2.185 -2.27,0 -3.835,-1.496 -3.835,-4.06 0,-2.734 1.479,-4.282 3.87,-4.282 2.253,0 3.354,1.479 3.354,3.526 0,0.344 -0.034,0.705 -0.104,1.031 l -4.9,0 c 0.051,1.221 0.618,2.013 1.667,2.013 0.619,0 1.135,-0.241 1.393,-1.084 z m -0.258,-2.201 c 0.017,-0.104 0.017,-0.172 0.017,-0.275 0,-0.739 -0.43,-1.307 -1.256,-1.307 -0.859,0 -1.41,0.653 -1.496,1.582 l 2.735,0 z"
         id="path101"
         inkscape:connector-curvature="0"
         style="fill:#642869" /><path
         d="m 242.268,44.478 c 0.43,-1.187 1.324,-1.72 2.547,-1.72 1.221,0 2.338,0.722 2.338,2.512 l 0,5.623 -2.305,0 0,-4.764 c 0,-0.878 -0.241,-1.445 -1.066,-1.445 -0.739,0 -1.443,0.414 -1.443,1.842 l 0,4.367 -2.306,0 0,-7.944 1.96,0 0.275,1.529 z"
         id="path103"
         inkscape:connector-curvature="0"
         style="fill:#642869" /><path
         d="m 254.342,39.404 2.303,0 0,11.488 -1.994,0 -0.292,-1.376 c -0.293,1.205 -1.291,1.583 -2.477,1.583 -1.755,0 -3.165,-1.394 -3.165,-4.007 0,-2.718 1.272,-4.335 3.544,-4.335 1.014,0 1.874,0.482 2.081,1.238 l 0,-4.591 z m 0.016,6.708 c 0,-1.17 -0.758,-1.651 -1.547,-1.651 -0.913,0 -1.79,0.653 -1.79,2.528 0,1.496 0.67,2.339 1.754,2.339 0.791,0 1.583,-0.584 1.583,-1.737 l 0,-1.479 z"
         id="path105"
         inkscape:connector-curvature="0"
         style="fill:#642869" /><path
         d="m 264.971,48.485 c 0,0.533 0.223,0.722 0.584,0.722 0.188,0 0.343,-0.051 0.498,-0.12 l 0,1.668 c -0.327,0.207 -0.756,0.293 -1.307,0.293 -1.015,0 -1.634,-0.395 -1.893,-1.256 -0.359,0.98 -1.22,1.308 -2.304,1.308 -1.41,0 -2.339,-0.825 -2.339,-2.185 0,-1.771 1.428,-2.734 4.488,-2.563 l 0,-0.755 c 0,-0.688 -0.292,-1.101 -0.93,-1.101 -0.635,0 -0.961,0.43 -0.997,1.168 l -2.286,-0.43 c 0.12,-1.685 1.548,-2.477 3.37,-2.477 1.978,0 3.114,0.861 3.114,2.632 l 0,3.096 z m -2.272,-0.894 c -1.616,-0.052 -2.184,0.379 -2.184,1.084 0,0.465 0.327,0.791 0.877,0.791 0.602,0 1.307,-0.292 1.307,-1.066 l 0,-0.809 z"
         id="path107"
         inkscape:connector-curvature="0"
         style="fill:#642869" /><path
         d="m 271.951,49.414 c -0.275,1.083 -0.997,1.686 -2.46,1.686 -1.409,0 -2.39,-0.722 -2.39,-2.563 l 0,-5.588 2.305,0 0,4.935 c 0,0.946 0.292,1.479 1.082,1.479 0.792,0 1.429,-0.618 1.429,-2.149 l 0,-4.265 2.305,0 0,7.944 -1.995,0 -0.276,-1.479 z"
         id="path109"
         inkscape:connector-curvature="0"
         style="fill:#642869" /><path
         d="m 277.506,48.296 c 0.173,0.86 0.791,1.187 1.549,1.187 0.637,0 1.084,-0.224 1.084,-0.688 0,-0.446 -0.311,-0.654 -1.016,-0.825 l -1.169,-0.275 c -1.393,-0.362 -2.03,-1.152 -2.03,-2.356 0,-2.011 1.6,-2.58 3.233,-2.58 1.892,0 3.027,0.688 3.147,2.237 l -2.149,0.309 c -0.086,-0.637 -0.447,-0.843 -1.101,-0.843 -0.533,0 -0.895,0.24 -0.895,0.653 0,0.396 0.24,0.619 0.774,0.723 l 1.117,0.241 c 1.618,0.344 2.373,1.203 2.373,2.562 0,1.771 -1.462,2.459 -3.405,2.459 -1.96,0 -3.096,-0.55 -3.404,-2.046 l 1.892,-0.758 z"
         id="path111"
         inkscape:connector-curvature="0"
         style="fill:#642869" /><path
         d="m 289.339,50.583 c -0.671,0.346 -1.496,0.517 -2.44,0.517 -1.584,0 -2.616,-0.74 -2.616,-2.563 l 0,-3.817 -1.152,0 0,-1.771 1.17,0 0,-1.687 2.304,-0.275 0,1.962 2.356,0 0,1.771 -2.373,0 0,3.301 c 0,0.844 0.328,1.119 0.963,1.119 0.5,0 0.929,-0.173 1.394,-0.499 l 0.394,1.942 z"
         id="path113"
         inkscape:connector-curvature="0"
         style="fill:#642869" /><path
         d="m 296.837,48.485 c 0,0.533 0.224,0.722 0.585,0.722 0.189,0 0.343,-0.051 0.498,-0.12 l 0,1.668 c -0.326,0.207 -0.757,0.293 -1.307,0.293 -1.016,0 -1.634,-0.395 -1.892,-1.256 -0.361,0.98 -1.222,1.308 -2.306,1.308 -1.409,0 -2.338,-0.825 -2.338,-2.185 0,-1.771 1.428,-2.734 4.488,-2.563 l 0,-0.755 c 0,-0.688 -0.292,-1.101 -0.929,-1.101 -0.636,0 -0.963,0.43 -0.997,1.168 l -2.288,-0.43 c 0.121,-1.685 1.549,-2.477 3.372,-2.477 1.978,0 3.112,0.861 3.112,2.632 l 0,3.096 z m -2.271,-0.894 c -1.616,-0.052 -2.184,0.379 -2.184,1.084 0,0.465 0.326,0.791 0.877,0.791 0.602,0 1.307,-0.292 1.307,-1.066 l 0,-0.809 z"
         id="path115"
         inkscape:connector-curvature="0"
         style="fill:#642869" /><path
         d="m 303.819,49.414 c -0.275,1.083 -0.997,1.686 -2.46,1.686 -1.409,0 -2.39,-0.722 -2.39,-2.563 l 0,-5.588 2.304,0 0,4.935 c 0,0.946 0.292,1.479 1.083,1.479 0.792,0 1.427,-0.618 1.427,-2.149 l 0,-4.265 2.306,0 0,7.944 -1.995,0 -0.275,-1.479 z"
         id="path117"
         inkscape:connector-curvature="0"
         style="fill:#642869" /><path
         d="m 309.374,48.296 c 0.172,0.86 0.791,1.187 1.548,1.187 0.637,0 1.084,-0.224 1.084,-0.688 0,-0.446 -0.311,-0.654 -1.016,-0.825 l -1.17,-0.275 c -1.393,-0.362 -2.028,-1.152 -2.028,-2.356 0,-2.011 1.599,-2.58 3.233,-2.58 1.892,0 3.026,0.688 3.146,2.237 l -2.149,0.309 c -0.085,-0.637 -0.447,-0.843 -1.101,-0.843 -0.534,0 -0.894,0.24 -0.894,0.653 0,0.396 0.24,0.619 0.772,0.723 l 1.118,0.241 c 1.617,0.344 2.374,1.203 2.374,2.562 0,1.771 -1.462,2.459 -3.405,2.459 -1.961,0 -3.096,-0.55 -3.405,-2.046 l 1.893,-0.758 z"
         id="path119"
         inkscape:connector-curvature="0"
         style="fill:#642869" /><path
         d="m 322.583,48.761 c -0.292,1.599 -1.668,2.339 -3.354,2.339 -2.305,0 -3.835,-1.496 -3.835,-4.146 0,-2.648 1.53,-4.196 3.853,-4.196 1.892,0 3.096,1.016 3.216,2.614 l -1.943,0.533 c -0.12,-0.843 -0.517,-1.342 -1.29,-1.342 -1.032,0 -1.6,0.913 -1.6,2.357 0,1.512 0.603,2.407 1.635,2.407 0.618,0 1.083,-0.31 1.289,-1.222 l 2.029,0.656 z"
         id="path121"
         inkscape:connector-curvature="0"
         style="fill:#642869" /><path
         d="m 326.297,44.461 c 0.411,-1.17 1.254,-1.703 2.477,-1.703 1.221,0 2.338,0.722 2.338,2.512 l 0,5.623 -2.304,0 0,-4.764 c 0,-0.878 -0.241,-1.445 -1.066,-1.445 -0.74,0 -1.444,0.414 -1.444,1.823 l 0,4.386 -2.305,0 0,-11.489 2.305,0 0,5.057 z"
         id="path123"
         inkscape:connector-curvature="0"
         style="fill:#642869" /></g></g></svg>