<?xml version="1.0" encoding="utf-8"?>
<!-- Generator: Adobe Illustrator 16.0.0, SVG Export Plug-In . SVG Version: 6.00 Build 0)  -->
<!DOCTYPE svg PUBLIC "-//W3C//DTD SVG 1.1//EN" "http://www.w3.org/Graphics/SVG/1.1/DTD/svg11.dtd">
<svg version="1.1" xmlns="http://www.w3.org/2000/svg" xmlns:xlink="http://www.w3.org/1999/xlink" x="0px" y="0px" width="360px"
	 height="360px" viewBox="0 0 360 360" style="enable-background:new 0 0 360 360;" xml:space="preserve">
<style type="text/css">
<![CDATA[
	.st0{fill:#527890;}
	.st1{fill:#527991;}
	.st2{display:inline;}
	.st3{display:none;}
]]>
</style>
<g id="Ebene_1" class="st3">
	<g class="st2">
		<path class="st1" d="M89.758,205.944h-5.994c-3.996,0-5.993-1.995-5.993-6.653v-86.478c0-3.326-0.666-5.987-1.998-7.317
			c-1.332-1.33-3.33-1.996-6.66-1.996h-5.328l-11.987,1.331c-6.66,1.331-11.988,3.991-15.984,7.982
			c-3.995,3.991-5.993,9.978-5.993,17.296v26.608c0,4.656-1.332,8.647-3.33,11.974c-1.998,3.327-5.328,5.322-9.324,6.652
			C16.5,176.674,16.5,178.005,16.5,180s0,3.992,0.665,4.656c3.996,1.331,6.66,3.326,9.324,6.652s3.33,7.318,3.33,11.974v26.61
			c0,7.315,1.998,12.638,5.993,17.294c3.996,3.991,9.324,6.653,15.984,7.982l7.325,1.331c1.333-1.331,1.998-2.66,1.998-3.991
			c0.666-1.995,0.666-3.326,0.666-3.991c0-0.664,0-1.331,0-1.995l-7.325-2.661c-5.994-1.995-9.324-5.986-9.324-13.305v-25.943
			c0-4.656-1.332-9.313-3.33-13.97c-1.998-4.656-5.327-7.982-9.323-9.978v-1.331c3.996-1.996,6.659-4.656,9.323-9.313
			c1.998-3.992,3.33-8.648,3.33-13.97v-25.943c0-7.318,3.33-11.974,9.324-13.305l8.657-0.665v87.143
			c0,9.979,4.662,15.301,14.652,15.301c4.662,0,8.657-0.665,12.653-1.331c0-1.329,0-2.66,0-4.656
			C91.09,210.601,90.424,208.604,89.758,205.944z"/>
		<path class="st1" d="M164.35,183.992h-45.954c0,7.316,1.998,13.304,4.662,17.294c2.664,3.992,7.327,5.987,13.986,5.987
			c6.66,0,13.986-1.995,21.312-5.987c2.664,2.663,3.996,5.987,4.662,9.979c-7.992,5.987-17.981,8.649-29.304,8.649
			s-19.314-3.991-23.977-11.31s-7.325-17.296-7.325-29.27c0-11.974,2.663-21.287,7.991-29.269
			c5.328-7.318,13.32-11.309,23.311-11.309s17.981,3.326,23.31,9.313c5.328,5.987,7.992,13.969,7.992,23.948
			C165.682,176.009,165.016,180,164.35,183.992z M147.034,156.053c-2.664-3.991-6.66-5.987-11.988-5.987s-9.324,1.996-11.988,5.987
			s-4.662,9.313-4.662,16.63h32.635v-1.996C151.03,164.7,149.697,160.044,147.034,156.053z"/>
		<path class="st1" d="M178.335,211.932c0-1.996,0.666-3.327,1.331-5.987c0.668-1.995,1.997-3.991,3.331-4.658
			c8.656,4.658,15.318,6.654,20.645,6.654c5.328,0,9.324-0.667,11.988-2.662c2.664-1.996,3.996-4.656,3.996-7.317
			c0-4.656-3.33-8.648-9.99-11.309l-8.658-3.326c-13.32-4.656-19.979-11.974-19.979-21.952c0-6.652,2.662-12.639,7.992-16.63
			c5.328-3.991,11.986-5.987,19.979-5.987c8.658,0,16.648,1.996,23.977,5.322c0,1.996,0,3.992-1.334,5.987
			c-0.664,1.996-1.998,3.991-3.328,4.656c-7.326-3.326-14.652-4.656-20.646-4.656c-3.328,0-6.66,0.665-8.658,2.661
			s-3.33,3.991-3.33,6.652c0,2.661,0.668,4.657,2.666,5.987c1.33,1.331,3.996,2.661,7.992,3.991l9.322,3.327
			c13.32,5.322,19.314,12.639,19.314,23.283c0,6.652-2.664,12.639-7.992,16.63s-12.654,5.987-21.979,5.987
			C196.317,219.247,186.993,217.252,178.335,211.932z"/>
		<path class="st1" d="M246.267,211.932c0-1.996,0.664-3.327,1.33-5.987c0.668-1.995,1.998-3.991,3.33-4.658
			c8.658,4.658,15.318,6.654,20.645,6.654c5.33,0,9.326-0.667,11.988-2.662c2.664-1.996,3.998-4.656,3.998-7.317
			c0-4.656-3.33-8.648-9.992-11.309l-8.656-3.326c-13.32-4.656-19.98-11.974-19.98-21.952c0-6.652,2.664-12.639,7.992-16.63
			c5.328-3.991,11.988-5.987,19.98-5.987c7.99,0,16.649,1.996,23.976,5.322c0,1.996,0,3.992-1.332,5.987
			c-0.666,1.996-1.998,3.991-3.33,4.656c-7.327-3.326-14.653-4.656-20.647-4.656c-3.328,0-6.658,0.665-8.656,2.661
			s-3.33,3.991-3.33,6.652c0,2.661,0.666,4.657,2.664,5.987c1.332,1.331,3.996,2.661,7.992,3.991l9.322,3.327
			c13.321,5.322,19.315,12.639,19.315,23.283c0,6.652-2.664,12.639-7.992,16.63c-5.327,3.991-12.653,5.987-21.978,5.987
			C263.581,219.247,254.923,217.252,246.267,211.932z"/>
		<path class="st1" d="M300.211,256.5c-1.998-1.995-2.664-4.655-2.664-8.646c0-0.667,0-1.331,0-1.996l7.326-2.662
			c5.994-1.996,9.324-5.987,9.324-13.303v-25.943c0-4.658,1.332-9.314,3.33-13.971c2.664-3.991,5.328-7.317,9.324-9.313v-1.331
			c-3.996-1.996-6.66-4.656-9.324-9.313c-1.998-3.992-3.33-8.648-3.33-13.97v-25.943c0-7.318-3.33-11.974-9.324-13.305l-7.326-1.996
			c0-0.665,0-1.331,0-2.661c0-0.666,0-1.996,0.666-3.991s1.332-3.326,1.998-3.991l7.992,1.33c6.66,1.331,11.988,3.991,15.982,7.982
			c3.996,3.991,5.994,9.978,5.994,16.631v26.608c0,4.656,1.334,8.647,3.332,11.974c2.662,3.327,5.326,5.322,9.322,6.652
			c0.666,1.331,0.666,2.661,0.666,4.657s0,3.992-0.666,4.656c-3.996,1.331-6.66,3.326-9.322,6.652
			c-2.666,3.326-3.332,7.318-3.332,11.974v26.61c0,7.315-1.998,12.638-5.994,17.294c-3.994,4.658-9.322,7.318-15.982,7.982
			L300.211,256.5z"/>
	</g>
</g>
<g id="Ebene_2" class="st3">
	<g class="st2">
		<rect x="67.168" y="96.5" class="st1" width="46.734" height="46.76"/>
		<rect x="66.5" y="156.62" class="st1" width="46.734" height="46.76"/>
		<rect x="66.5" y="216.74" class="st1" width="46.734" height="46.76"/>
		<rect x="127.256" y="96.5" class="st1" width="46.735" height="46.76"/>
		<rect x="126.588" y="156.62" class="st1" width="46.736" height="46.76"/>
		<rect x="126.588" y="216.74" class="st1" width="46.736" height="46.76"/>
		<rect x="186.676" y="156.62" class="st1" width="46.736" height="46.76"/>
		<rect x="186.676" y="216.74" class="st1" width="46.736" height="46.76"/>
		<rect x="246.764" y="156.62" class="st1" width="46.736" height="46.76"/>
	</g>
</g>
<g id="Ebene_3" class="st3">
	<g class="st2">
		<path class="st1" d="M180,172c-4.654,0-8.643,4-8.643,8.666V210c2.66,0.666,5.982,0.666,8.643,0.666c2.659,0,5.984,0,8.643-0.666
			v-29.334C188.643,176,184.652,172,180,172z"/>
		<path class="st1" d="M238.5,152.667c0-32-25.926-58.667-58.5-58.667c-31.909,0-58.5,26-58.5,58.667
			c0,27.333,18.613,50,43.875,56.667v-28.668c0-8,6.648-14.666,14.625-14.666c7.979,0,14.625,6.667,14.625,14.666v28.668
			C219.889,202.666,238.5,180,238.5,152.667z"/>
		<polygon class="st1" points="132.718,187.334 157.314,223.334 165.292,223.334 165.292,188 		"/>
		<polygon class="st1" points="225.87,188.666 194.625,188.666 194.625,223.334 201.938,223.334 		"/>
		<polygon class="st1" points="171.357,188 171.357,223.334 188.643,223.334 188.643,188 		"/>
		<rect x="158.063" y="232.666" class="st1" width="43.875" height="13.334"/>
		<rect x="158.063" y="252.666" class="st1" width="43.875" height="13.334"/>
	</g>
</g>
<g id="Ebene_4" class="st3">
	<g class="st2">
		<ellipse class="st1" cx="182.004" cy="122" rx="22.039" ry="22"/>
		<ellipse class="st1" cx="251.461" cy="225.332" rx="22.039" ry="22"/>
		<ellipse class="st1" cx="108.54" cy="225.332" rx="22.039" ry="22"/>
		<path class="st1" d="M238.771,170c-7.346-12.667-17.363-24-28.717-33.334L204.043,144c10.686,8,19.367,18,26.045,29.333
			l-6.01,2.667l19.369,13.333L245.449,166L238.771,170z"/>
		<path class="st1" d="M157.292,141.333l-22.707,4l4.676,5.333c-10.019,10.667-18.701,22.667-24.044,36.667l8.683,3.333
			C129.243,178,135.921,167.333,145.271,158l4.676,5.333L157.292,141.333z"/>
		<path class="st1" d="M211.391,253.332L209.387,244c-13.357,2.666-26.717,2.666-39.405,0l2.004-6.668l-22.707,6L165.308,260
			l2.002-6.668c7.347,1.334,14.026,2,21.372,2C196.695,255.332,204.043,254.666,211.391,253.332z"/>
	</g>
</g>
<g id="Ebene_5">
	<g>
		<g>
			<g>
				<path class="st0" d="M118.965,234.771c-8.418-0.6-18.04-1.796-29.465-2.994v11.378c6.614,0.6,30.066,3.595,51.714,4.193
					C128.586,243.154,121.37,237.166,118.965,234.771z"/>
			</g>
			<g>
				<path class="st0" d="M111.147,183.265c-3.007-31.142,19.844-58.093,51.113-61.087s58.329,19.764,61.336,50.907
					c3.007,31.143-19.844,58.093-51.113,61.087c-1.203,0-3.007,0-4.209,0c16.236,2.396,32.472,0.6,45.1-2.395
					c16.837-14.374,27.06-36.534,24.653-59.891c-3.607-38.928-37.883-67.675-76.97-64.083c-39.086,3.593-67.95,37.73-64.342,76.66
					c1.805,18.566,10.223,34.137,22.851,45.517l22.249-1.798C124.978,219.798,112.951,203.029,111.147,183.265z"/>
				<path class="st0" d="M141.815,228.182l-22.249,1.798c0.601,0.599,1.804,1.797,2.405,2.396c-0.601-0.599-0.601-0.599-0.601-0.599
					l23.452-2.396"/>
			</g>
		</g>
		<path class="st0" d="M259.676,246.749l-6.615-10.78l-1.804,0.599c-66.146,32.939-117.259,6.587-130.488-5.989l24.655-1.797
			c43.897,22.759,98.017-4.791,98.618-4.791l1.805-1.197l-7.818-13.177l32.473,3.594L259.676,246.749z"/>
	</g>
</g>
</svg>
