<?xml version="1.0" encoding="iso-8859-1"?>
<!-- Generator: Adobe Illustrator 19.0.0, SVG Export Plug-In . SVG Version: 6.00 Build 0)  -->
<svg version="1.1" id="Capa_1" xmlns="http://www.w3.org/2000/svg" xmlns:xlink="http://www.w3.org/1999/xlink" x="0px" y="0px"
	 viewBox="0 0 512 512" style="enable-background:new 0 0 512 512;" xml:space="preserve">
<g>
	<g>
		<path d="M480,234.667H202.667c-17.673,0-32,14.327-32,32v170.667c0,17.673,14.327,32,32,32h106.667V448H202.667
			c-5.891,0-10.667-4.776-10.667-10.667V266.667c0-5.891,4.776-10.667,10.667-10.667H480c5.891,0,10.667,4.776,10.667,10.667
			v170.667c0,5.891-4.776,10.667-10.667,10.667H373.333v21.333H480c17.673,0,32-14.327,32-32V266.667
			C512,248.994,497.673,234.667,480,234.667z"/>
	</g>
</g>
<g>
	<g>
		<rect x="277.333" y="490.667" width="128" height="21.333"/>
	</g>
</g>
<g>
	<g>
		<path d="M352,362.667h-21.333c-17.673,0-32,14.327-32,32V512H320V394.667c0-5.891,4.776-10.667,10.667-10.667H352
			c5.891,0,10.667,4.776,10.667,10.667V512H384V394.667C384,376.994,369.673,362.667,352,362.667z"/>
	</g>
</g>
<g>
	<g>
		<path d="M117.333,0C76.096,0,42.667,33.429,42.667,74.667V96c0,5.891,4.776,10.667,10.667,10.667V128
			c0.035,35.332,28.668,63.965,64,64c35.332-0.035,63.965-28.668,64-64v-21.333c5.891,0,10.667-4.776,10.667-10.667V74.667
			C192,33.429,158.571,0,117.333,0z M170.667,85.333C164.776,85.333,160,90.109,160,96v32c0,23.564-19.103,42.667-42.667,42.667
			S74.667,151.564,74.667,128V96c0-5.891-4.776-10.667-10.667-10.667V74.667c0-29.455,23.878-53.333,53.333-53.333
			c29.455,0,53.333,23.878,53.333,53.333V85.333z"/>
	</g>
</g>
<g>
	<g>
		<path d="M106.667,64c0-5.891-4.776-10.667-10.667-10.667S85.333,58.109,85.333,64c0.056,0.882,0.055,1.766-0.005,2.647
			c-0.753,11.073-10.34,19.439-21.413,18.686L64,106.667c13.893,0.031,26.988-6.487,35.339-17.589
			c11.595,9.301,32.747,17.589,71.328,17.589V85.333C110.027,85.333,106.667,64,106.667,64z"/>
	</g>
</g>
<g>
	<g>
		<path d="M21.333,384V266.667c0.035-29.441,23.893-53.298,53.333-53.333H96V192H74.667C33.449,192.047,0.047,225.449,0,266.667v128
			c0,5.891,4.776,10.667,10.667,10.667h138.667V384H21.333z"/>
	</g>
</g>
<g>
	<g>
		<path d="M160,192h-21.333v21.333H160c13.122-0.009,25.786,4.826,35.563,13.579l14.229-15.893
			C196.106,198.76,178.374,191.987,160,192z"/>
	</g>
</g>
<g>
	<g>
		<path d="M128,181.333v21.333c0,5.891-4.776,10.667-10.667,10.667c-5.891,0-10.667-4.776-10.667-10.667v-21.333H85.333v21.333
			c0,17.673,14.327,32,32,32c17.673,0,32-14.327,32-32v-21.333H128z"/>
	</g>
</g>
<g>
	<g>
		<rect x="53.333" y="309.333" width="21.333" height="85.333"/>
	</g>
</g>
<g>
	<g>
		<path d="M426.667,42.667h-128c-35.346,0-64,28.654-64,64c0,35.346,28.654,64,64,64v32c0,5.891,4.776,10.667,10.667,10.667
			c2.829-0.001,5.541-1.125,7.541-3.125l39.541-39.541h70.251c35.346,0,64-28.654,64-64
			C490.667,71.32,462.013,42.667,426.667,42.667z M426.667,149.333H352c-2.829,0.001-5.541,1.125-7.541,3.125L320,176.917V160
			c0-5.891-4.776-10.667-10.667-10.667h-10.667c-23.564,0-42.667-19.102-42.667-42.667S275.103,64,298.667,64h128
			c23.564,0,42.667,19.103,42.667,42.667S450.231,149.333,426.667,149.333z"/>
	</g>
</g>
<g>
	<g>
		<rect x="277.333" y="96" width="21.333" height="21.333"/>
	</g>
</g>
<g>
	<g>
		<rect x="320" y="96" width="128" height="21.333"/>
	</g>
</g>
<g>
	<g>
		<rect x="448" y="405.333" width="21.333" height="21.333"/>
	</g>
</g>
<g>
	<g>
		<rect x="448" y="362.667" width="21.333" height="21.333"/>
	</g>
</g>
<g>
	<g>
		<rect x="405.333" y="405.333" width="21.333" height="21.333"/>
	</g>
</g>
<g>
</g>
<g>
</g>
<g>
</g>
<g>
</g>
<g>
</g>
<g>
</g>
<g>
</g>
<g>
</g>
<g>
</g>
<g>
</g>
<g>
</g>
<g>
</g>
<g>
</g>
<g>
</g>
<g>
</g>
</svg>
