<?xml version="1.0" encoding="UTF-8" standalone="no"?>
<!-- Created with Inkscape (http://www.inkscape.org/) -->

<svg
   xmlns:dc="http://purl.org/dc/elements/1.1/"
   xmlns:cc="http://creativecommons.org/ns#"
   xmlns:rdf="http://www.w3.org/1999/02/22-rdf-syntax-ns#"
   xmlns:svg="http://www.w3.org/2000/svg"
   xmlns="http://www.w3.org/2000/svg"
   xmlns:sodipodi="http://sodipodi.sourceforge.net/DTD/sodipodi-0.dtd"
   xmlns:inkscape="http://www.inkscape.org/namespaces/inkscape"
   width="700"
   height="700"
   viewBox="0 0 700.00001 700.00001"
   id="svg4160"
   version="1.1"
   inkscape:version="0.91 r13725"
   sodipodi:docname="YFU-Logo4.svg">
  <defs
     id="defs4162" />
  <sodipodi:namedview
     id="base"
     pagecolor="#ffffff"
     bordercolor="#666666"
     borderopacity="1.0"
     inkscape:pageopacity="0.0"
     inkscape:pageshadow="2"
     inkscape:zoom="0.78109989"
     inkscape:cx="-27.389503"
     inkscape:cy="526.1811"
     inkscape:document-units="px"
     inkscape:current-layer="layer1"
     showgrid="false"
     inkscape:window-width="1920"
     inkscape:window-height="1017"
     inkscape:window-x="-8"
     inkscape:window-y="-8"
     inkscape:window-maximized="1"
     units="px" />
  <metadata
     id="metadata4165">
    <rdf:RDF>
      <cc:Work
         rdf:about="">
        <dc:format>image/svg+xml</dc:format>
        <dc:type
           rdf:resource="http://purl.org/dc/dcmitype/StillImage" />
        <dc:title></dc:title>
      </cc:Work>
    </rdf:RDF>
  </metadata>
  <g
     inkscape:label="Ebene 1"
     inkscape:groupmode="layer"
     id="layer1"
     transform="translate(0,-352.36216)">
    <path
       style="fill:#632768;fill-opacity:1"
       d="M 298.65523,1049.8175 C 222.95127,1038.2211 157.70753,1004.8783 102.52908,949.58701 49.009579,895.95813 17.958819,835.55442 4.4505287,758.79214 -0.02062126,733.38453 0.36606874,725.7359 6.2504687,723.18637 18.393479,717.92517 167.53978,671.51351 169.13301,672.50025 c 0.9867,0.61099 -0.60434,8.63494 -3.53551,17.83103 -4.23109,13.27414 -5.17939,20.15765 -4.60134,33.40117 0.67617,15.49298 1.22517,17.17951 7.70519,23.67279 6.39718,6.41028 8.30565,7.05856 22.96129,7.80018 13.49692,0.68299 17.76553,-0.0215 27.4318,-4.47862 6.29619,-2.90805 15.77161,-8.93006 21.05642,-13.38216 5.53177,-4.65991 9.958,-7.04497 10.43171,-5.62078 0.45263,1.36034 -0.9268,8.97746 -3.06521,16.92683 -3.4996,13.00898 -5.61692,16.2844 -21.18908,32.77834 -43.07255,45.62218 -65.71894,85.20945 -65.70124,114.84925 0.0126,22.46701 11.94416,34.2189 31.50949,31.03746 26.42773,-4.29728 40.58923,-29.45504 58.94824,-104.72009 l 10.83036,-44.40064 13.74912,-13.10903 c 21.94592,-20.92403 44.1942,-38.39998 46.16926,-36.26567 0.99021,1.06997 -1.5021,13.10212 -5.53859,26.73803 -18.89756,63.84039 -20.57696,99.62898 -4.90895,104.61185 19.76545,6.28609 43.06262,-22.10589 57.02524,-69.49633 7.35311,-24.95706 9.20903,-58.99357 4.14844,-76.07714 -6.07301,-20.50064 -6.60852,-19.57642 13.93529,-24.04599 10.042,-2.18475 22.93293,-5.52829 28.64641,-7.42977 5.71356,-1.90169 10.94457,-2.90008 11.62452,-2.21862 0.68001,0.68126 -0.35092,6.90721 -2.29082,13.83532 -7.34178,26.21934 -3.24448,46.15167 11.53314,56.10535 6.65291,4.4812 9.53539,4.9861 24.74206,4.33287 20.73209,-0.89059 32.50078,-5.99807 49.32558,-21.40632 6.33553,-5.8021 12.07218,-10.54934 12.74813,-10.54934 0.6759,0 2.29274,3.95862 3.59293,8.79681 1.30011,4.83823 5.57048,12.30294 9.48974,16.58818 6.52605,7.13573 8.281,7.85838 20.8474,8.5851 15.29274,0.88435 41.16723,-5.48108 104.65672,-25.74674 21.248,-6.78236 35.71953,-10.38031 36.83655,-9.15812 2.6581,2.90803 -1.21709,35.05664 -7.31819,60.71285 -15.59266,65.56961 -44.94957,117.90907 -93.51198,166.71958 -50.59043,50.84872 -107.62176,81.88722 -178.23967,97.00442 -27.65064,5.9192 -91.39958,7.5563 -120.52223,3.0952 z M 182.8757,900.98562 c -3.89779,-10.17829 10.49693,-43.36346 29.82685,-68.7618 19.16611,-25.18299 20.36235,-22.22903 7.79074,19.2373 -7.09768,23.41085 -14.79752,40.39633 -21.76001,48.00182 -5.09941,5.57035 -13.98086,6.42322 -15.85758,1.52268 z M 323.68153,827.6887 c -2.73917,-2.74463 18.68146,-89.4112 24.24051,-98.07523 1.77472,-2.76621 2.29075,-2.75695 4.14553,0.0732 6.7003,10.22745 -2.79383,57.2749 -17.51071,86.77394 -5.81617,11.65809 -8.09619,14.01167 -10.87533,11.22692 z m 227.27701,-96.01509 c -5.96533,-6.60516 -5.13189,-29.79893 2.107,-58.63222 6.33756,-25.24357 5.95588,-31.02583 -2.18334,-33.07286 -7.37243,-1.85404 -12.35146,3.28666 -18.09895,18.68671 -15.68034,42.01454 -48.60939,75.26263 -74.60045,75.32323 -10.33615,0.0237 -15.72015,-5.35586 -15.72015,-15.70857 0,-8.01641 9.07337,-34.94736 17.22793,-51.13433 8.04357,-15.96682 8.31454,-22.91846 1.02309,-26.24753 -4.76064,-2.17357 -7.68638,-1.27673 -24.2041,7.41858 -21.62252,11.38257 -45.45779,19.94828 -48.11106,17.28965 -1.0004,-1.00245 4.5253,-10.51806 12.27943,-21.14544 27.11427,-37.16189 52.48528,-82.75152 62.21525,-111.79587 8.77293,-26.18742 6.70247,-41.26216 -6.53134,-47.55494 -14.00564,-6.6597 -25.4994,-2.67996 -40.48045,14.01665 -14.08648,15.69971 -27.64988,44.7637 -49.75138,106.6084 -10.16982,28.45754 -19.56233,54.46127 -20.87211,57.78604 -2.29662,5.8295 -2.77986,5.99529 -13.54858,4.64701 -8.86312,-1.10963 -11.90646,-0.65711 -14.75118,2.19359 -5.39342,5.40437 -4.34301,10.99927 3.1714,16.89235 l 6.75554,5.29764 -5.14192,4.31994 c -18.35375,15.41922 -41.07495,32.8262 -42.84779,32.8262 -2.98951,0 -3.0863,0.49737 7.84625,-40.29222 10.72659,-40.02142 10.98823,-47.08106 1.8296,-49.38439 -7.5857,-1.90772 -10.45252,1.24286 -22.55163,24.78457 -20.7868,40.44595 -46.12389,66.22846 -67.45098,68.63744 -6.33801,0.71574 -11.1226,0.14447 -13.19023,-1.57508 -7.3726,-6.13109 -1.20002,-34.38748 14.23593,-65.1682 7.6622,-15.2789 7.97919,-22.51057 1.12413,-25.64046 -4.24783,-1.93943 -19.38016,2.25202 -94.12713,26.07162 -48.986061,15.61028 -92.301241,29.3876 -96.255991,30.61621 -11.04212026,3.43023 -11.7587203,1.28321 -8.9860703,-26.92576 C 10.076639,582.22432 44.984219,510.25605 109.27433,448.34626 c 52.04224,-50.11546 113.58015,-80.82546 185.812,-92.72824 28.63136,-4.71792 84.99682,-4.23825 115.47472,0.98285 144.44195,24.74405 260.8661,141.69269 284.49232,285.77406 5.34339,32.58605 6.34098,49.51483 3.07446,52.17345 -6.90758,5.62145 -126.73001,41.58228 -138.61402,41.60017 -2.4791,0 -6.32896,-2.00991 -8.55527,-4.47494 z M 385.48296,619.19927 c 2.8213,-9.77387 20.79763,-58.02426 26.10399,-70.06568 6.95946,-15.79287 23.36943,-40.63498 28.02464,-42.42503 1.96383,-0.7552 4.49176,-0.44993 5.61757,0.67823 5.26318,5.27394 -18.96593,58.44987 -43.72777,95.96983 -13.31856,20.18093 -18.84975,25.65126 -16.01843,15.84265 z"
       id="path4157"
       inkscape:connector-curvature="0"
       inkscape:export-xdpi="90"
       inkscape:export-ydpi="90" />
  </g>
</svg>
