<?xml version="1.0" encoding="utf-8"?>
<!-- Generator: Adobe Illustrator 15.0.2, SVG Export Plug-In . SVG Version: 6.00 Build 0)  -->
<!DOCTYPE svg PUBLIC "-//W3C//DTD SVG 1.1//EN" "http://www.w3.org/Graphics/SVG/1.1/DTD/svg11.dtd">
<svg version="1.1" id="Drawing" xmlns="http://www.w3.org/2000/svg" xmlns:xlink="http://www.w3.org/1999/xlink" x="0px" y="0px"
	 width="255.119px" height="255.117px" viewBox="0 0 255.119 255.117" enable-background="new 0 0 255.119 255.117"
	 xml:space="preserve">
<g>
	<path fill="#F7941E" d="M456.358-785.861c-1.027-7.471-8.238-8.218-11.34-8.183c-2.588,0.024-5.299,0.569-7.771,1.537
		c2.449,4.354,3.779,9.028,3.766,12.803c-0.014,3.589-1.688,6.519-4.592,8.038c-3.162,1.655-7.26,1.312-10.439-0.877
		c-3.535-2.436-5.242-6.554-4.682-11.297c0.441-3.724,2.508-7.521,5.869-10.591c-0.971-0.957-2.027-1.808-3.15-2.505
		c-2.066-1.282-4.162-1.925-6.27-1.925c-1.734,0-3.475,0.436-5.215,1.305c-3.205,1.603-5.189,4.327-5.895,8.098
		c-1.148,6.146,1.365,14.289,5.977,19.362c4.766,5.242,11.941,10.121,19.691,13.931C447.45-763.542,458.163-772.739,456.358-785.861
		z"/>
	<path fill="#F7941E" d="M433.202-777.816c0.213-0.111,0.863-0.451,0.869-1.913c0.01-2.629-0.986-5.975-2.73-9.134
		c-1.719,1.646-2.885,3.623-3.146,5.838c-0.324,2.734,0.76,4.101,1.725,4.766C431.093-777.453,432.458-777.424,433.202-777.816z"/>
	<path fill="#F7941E" d="M387.534-741.823c-1.892-3.644-2.845-7.769-2.845-12.346c0-6.948,0.201-22.706,0.347-34.211
		c0.073-5.722,0.133-10.438,0.151-12.651c-1.04-0.113-2.755-0.05-3.885-0.009c-3.557,0.131-7.232,0.267-9.524-1.943
		c-1.1-1.06-1.681-2.471-1.681-4.079c0-1.66,0.642-3.922,8.307-11.578c4.686-4.68,10.804-10.164,17.228-15.439
		c9.723-7.989,27.316-21.391,35.881-21.391c9.033,0,26.457,13.279,36.039,21.195c6.367,5.259,12.4,10.742,16.992,15.438
		c7.508,7.681,8.137,10.105,8.137,11.775c0,5.472-6.107,5.525-9.756,5.558c-1.199,0.01-3.059,0.026-4.068,0.232
		c0.012,1.173,0.043,2.958,0.08,5.176c0.182,10.482,0.518,29.992-0.219,41.481c-0.369,5.751-3.674,10.004-9.303,11.977
		c-8.699,3.044-23.365,0.25-36.973-5.801c-6.537,2.975-13.025,5.296-18.24,7.161c-4.369,1.563-8.791,2.854-13.207,3.908
		c21.557,13.882,76.525,7.682,125.861-5.205c6.643-13.879,10.365-29.422,10.365-45.836c0-58.705-47.594-106.3-106.301-106.3
		c-58.705,0-106.298,47.595-106.298,106.3c0,16.432,3.73,31.991,10.387,45.882C346.136-740.508,366.098-738.629,387.534-741.823z"/>
	<path fill="#F7941E" d="M424.257-752.557c-6.545-3.699-12.443-8.103-16.775-12.87c-6.053-6.659-9.205-17.065-7.664-25.307
		c1.109-5.937,4.434-10.442,9.613-13.031c5.977-2.99,12.459-2.66,18.248,0.931c1.984,1.23,3.777,2.768,5.357,4.491
		c3.391-1.609,7.41-2.6,11.918-2.642c0.086-0.001,0.172-0.002,0.258-0.002c9.922,0,16.818,5.415,18.023,14.18
		c2.191,15.938-9.166,26.731-22.592,34.244c10.281,3.852,20.441,5.485,26.477,3.373c3.039-1.064,4.479-2.874,4.67-5.869
		c0.719-11.208,0.385-30.535,0.207-40.919c-0.049-2.83-0.086-4.97-0.086-6.06c0-6.313,7.125-6.376,10.953-6.409
		c0.5-0.005,1.098-0.01,1.678-0.028c-3.131-4.009-11.525-12.394-22.639-21.457c-16.83-13.727-26.891-18.598-30.391-18.598
		c-3.258,0-13.109,4.905-30.152,18.732c-11.631,9.436-20.405,18.063-23.393,21.865c0.996,0.031,2.21-0.013,3.08-0.045
		c0.839-0.031,1.685-0.062,2.518-0.062c2.662,0,5.185,0.318,6.909,1.98c1.086,1.046,1.66,2.437,1.66,4.021
		c0,1.442-0.068,6.871-0.156,13.745c-0.146,11.487-0.348,27.22-0.348,34.123c0,4.281,1.064,7.941,3.23,11.058
		c5.67-1.152,11.379-2.689,17.004-4.703C416.099-749.329,420.267-750.899,424.257-752.557z"/>
	<path fill="#F7941E" d="M395.456-732.762c-1.191-0.881-2.285-1.813-3.279-2.801c-20.565,3.552-40.201,2.486-53.102,0.688
		c18.435,31.559,52.663,52.766,91.846,52.766c38.967,0,73.029-20.971,91.535-52.236c-25.742,6.324-56.43,11.758-82.283,11.759
		C421.53-722.587,405.405-725.411,395.456-732.762z"/>
	<path fill="#FFFFFF" d="M400.995-737.37c4.416-1.055,8.838-2.345,13.207-3.908c5.215-1.865,11.703-4.187,18.24-7.161
		c13.607,6.051,28.273,8.845,36.973,5.801c5.629-1.973,8.934-6.226,9.303-11.977c0.736-11.489,0.4-30.999,0.219-41.481
		c-0.037-2.218-0.068-4.003-0.08-5.176c1.01-0.206,2.869-0.223,4.068-0.232c3.648-0.032,9.756-0.086,9.756-5.558
		c0-1.67-0.629-4.095-8.137-11.775c-4.592-4.695-10.625-10.179-16.992-15.438c-9.582-7.916-27.006-21.195-36.039-21.195
		c-8.564,0-26.158,13.401-35.881,21.391c-6.424,5.275-12.542,10.76-17.228,15.439c-7.666,7.656-8.307,9.918-8.307,11.578
		c0,1.608,0.581,3.02,1.681,4.079c2.292,2.21,5.967,2.074,9.524,1.943c1.13-0.041,2.845-0.104,3.885,0.009
		c-0.018,2.213-0.078,6.93-0.151,12.651c-0.146,11.505-0.347,27.263-0.347,34.211c0,4.577,0.953,8.702,2.845,12.346
		c-21.436,3.194-41.398,1.315-52.524-0.706c1.252,2.613,2.611,5.165,4.065,7.654c12.901,1.799,32.537,2.864,53.102-0.688
		c0.994,0.987,2.088,1.92,3.279,2.801c9.949,7.351,26.074,10.175,44.717,10.175c25.854-0.001,56.541-5.435,82.283-11.759
		c1.582-2.671,3.053-5.415,4.4-8.229C477.521-729.688,422.552-723.488,400.995-737.37z M432.308-756.165
		c-7.75-3.81-14.926-8.688-19.691-13.931c-4.611-5.073-7.125-13.217-5.977-19.362c0.705-3.771,2.689-6.495,5.895-8.098
		c1.74-0.869,3.48-1.305,5.215-1.305c2.107,0,4.203,0.643,6.27,1.925c1.123,0.697,2.18,1.548,3.15,2.505
		c-3.361,3.07-5.428,6.867-5.869,10.591c-0.561,4.743,1.146,8.861,4.682,11.297c3.18,2.189,7.277,2.532,10.439,0.877
		c2.904-1.52,4.578-4.449,4.592-8.038c0.014-3.774-1.316-8.449-3.766-12.803c2.473-0.968,5.184-1.513,7.771-1.537
		c3.102-0.035,10.312,0.712,11.34,8.183C458.163-772.739,447.45-763.542,432.308-756.165z M428.194-783.025
		c0.262-2.215,1.428-4.191,3.146-5.838c1.744,3.159,2.74,6.505,2.73,9.134c-0.006,1.462-0.656,1.802-0.869,1.913
		c-0.744,0.393-2.109,0.363-3.283-0.443C428.954-778.925,427.87-780.291,428.194-783.025z M394.86-743.111
		c-2.166-3.116-3.23-6.776-3.23-11.058c0-6.903,0.201-22.636,0.348-34.123c0.088-6.874,0.156-12.303,0.156-13.745
		c0-1.584-0.574-2.975-1.66-4.021c-1.724-1.662-4.247-1.98-6.909-1.98c-0.833,0-1.679,0.03-2.518,0.062
		c-0.87,0.032-2.084,0.076-3.08,0.045c2.988-3.802,11.762-12.43,23.393-21.865c17.043-13.827,26.895-18.732,30.152-18.732
		c3.5,0,13.561,4.871,30.391,18.598c11.113,9.063,19.508,17.448,22.639,21.457c-0.58,0.019-1.178,0.023-1.678,0.028
		c-3.828,0.033-10.953,0.096-10.953,6.409c0,1.09,0.037,3.229,0.086,6.06c0.178,10.384,0.512,29.711-0.207,40.919
		c-0.191,2.995-1.631,4.805-4.67,5.869c-6.035,2.112-16.195,0.479-26.477-3.373c13.426-7.513,24.783-18.306,22.592-34.244
		c-1.205-8.765-8.102-14.18-18.023-14.18c-0.086,0-0.172,0.001-0.258,0.002c-4.508,0.042-8.527,1.032-11.918,2.642
		c-1.58-1.724-3.373-3.261-5.357-4.491c-5.789-3.591-12.271-3.921-18.248-0.931c-5.18,2.589-8.504,7.095-9.613,13.031
		c-1.541,8.241,1.611,18.647,7.664,25.307c4.332,4.768,10.23,9.171,16.775,12.87c-3.99,1.657-8.158,3.228-12.393,4.742
		C406.239-745.801,400.53-744.264,394.86-743.111z"/>
</g>
<g>
	<path fill="#27BDBE" d="M99.506-736.702c-4.224-1.465-7.85-3.754-8.215-7.315c-0.462-4.508,3.927-8.155,14.61-12.063l6.953-22.359
		c-13.833-1.461-42.825-5.445-48.198-13.527c-1.145-1.721-1.446-3.703-0.853-5.583c1.268-4.009,6.308-8.749,34.075-13.517
		c11.158-1.915,22.207-3.146,26.929-3.633c2.309-7.932,9.851-31.406,19.659-36.778c2.411-1.32,4.955-1.62,7.356-0.858l0.961,0.305
		c2.41,0.763,4.311,2.474,5.493,4.948c4.767,9.981-3.071,33.293-5.947,41.11c3.608,3.135,11.906,10.467,19.9,18.415
		c19.979,19.864,21.378,26.641,20.109,30.65c-0.594,1.879-1.981,3.328-3.906,4.077c-9.043,3.525-35.057-9.885-47.215-16.641
		l-7.165,22.291c6.196,8.912,7.842,14.335,5.399,17.786c20.026,5.689,44.385,2.108,63.288-2.699
		c7.231-1.839,14.104-3.961,20.31-6.089c6.917-14.106,10.807-29.968,10.807-46.739c0-58.705-47.591-106.298-106.298-106.298
		c-58.705,0-106.298,47.593-106.298,106.298c0,16.852,3.928,32.784,10.907,46.941C52.803-734.884,83.649-731.949,99.506-736.702z"/>
	<path fill="#27BDBE" d="M162.452-719.44c-17.867,0-32.484-4.068-43.692-12.194c-1.473-1.066-1.87-3.09-0.914-4.635
		c0.958-1.547,2.947-2.09,4.558-1.252c4.161,2.172,9.015,3.825,11.107,3.856c-0.257-1.228-1.381-4.325-6.109-10.899
		c-0.643-0.896-0.823-2.041-0.486-3.09l8.999-27.995c0.32-0.998,1.075-1.797,2.052-2.174c0.978-0.379,2.072-0.297,2.981,0.227
		c0.099,0.057,10.066,5.77,20.887,10.814c17.719,8.262,22.793,7.84,23.886,7.551c-0.104-1.145-1.594-6.783-18.819-23.837
		c-10.227-10.125-20.815-19.124-20.921-19.215c-1.13-0.959-1.527-2.531-0.986-3.912c4.376-11.175,10.15-31.345,7.02-37.898
		c-0.447-0.936-0.921-1.193-1.325-1.321l-0.962-0.305c-0.388-0.124-0.961-0.198-1.924,0.329
		c-6.474,3.544-13.828,23.233-16.942,34.812c-0.378,1.403-1.59,2.424-3.036,2.556c-0.139,0.013-13.976,1.289-28.164,3.694
		c-23.731,4.022-28.296,7.756-29.096,8.692c0.742,0.878,4.688,4.133,23.917,7.552c11.753,2.091,23.153,3.142,23.268,3.152
		c1.043,0.095,1.988,0.656,2.569,1.527c0.583,0.871,0.74,1.959,0.43,2.959l-8.732,28.082c-0.327,1.052-1.134,1.886-2.174,2.248
		c-7.642,2.658-10.344,4.545-11.263,5.403c1.744,1.173,6.738,2.634,11.302,3.232c1.333,0.175,2.445,1.104,2.854,2.385
		s0.042,2.683-0.942,3.598c-7.73,7.19-26.082,9.681-54.543,7.405c-7.496-0.6-14.747-1.46-20.957-2.316
		c18.565,31.019,52.49,51.787,91.268,51.787c38.295,0,71.855-20.253,90.566-50.63c-4.305,1.346-8.845,2.655-13.556,3.855
		C188.986-721.425,174.927-719.44,162.452-719.44z"/>
	<path fill="#FFFFFF" d="M202.741-732.094c-18.903,4.808-43.262,8.389-63.288,2.699c2.442-3.451,0.797-8.874-5.399-17.786
		l7.165-22.291c12.158,6.756,38.172,20.166,47.215,16.641c1.925-0.749,3.312-2.198,3.906-4.077c1.269-4.01-0.13-10.786-20.109-30.65
		c-7.994-7.948-16.292-15.28-19.9-18.415c2.876-7.817,10.714-31.129,5.947-41.11c-1.183-2.475-3.083-4.186-5.493-4.948l-0.961-0.305
		c-2.401-0.762-4.945-0.462-7.356,0.858c-9.809,5.372-17.351,28.847-19.659,36.778c-4.722,0.487-15.771,1.718-26.929,3.633
		c-27.768,4.768-32.808,9.508-34.075,13.517c-0.594,1.88-0.292,3.862,0.853,5.583c5.373,8.082,34.365,12.066,48.198,13.527
		l-6.953,22.359c-10.684,3.908-15.072,7.556-14.61,12.063c0.365,3.562,3.991,5.851,8.215,7.315
		c-15.856,4.753-46.703,1.818-67.337-1.278c1.274,2.585,2.649,5.11,4.123,7.571c6.21,0.856,13.461,1.717,20.957,2.316
		c28.461,2.275,46.812-0.215,54.543-7.405c0.984-0.915,1.352-2.317,0.942-3.598s-1.521-2.21-2.854-2.385
		c-4.563-0.599-9.558-2.06-11.302-3.232c0.919-0.858,3.621-2.745,11.263-5.403c1.04-0.362,1.847-1.196,2.174-2.248l8.732-28.082
		c0.311-1,0.153-2.088-0.43-2.959c-0.581-0.871-1.526-1.433-2.569-1.527c-0.114-0.011-11.515-1.062-23.268-3.152
		c-19.229-3.419-23.175-6.674-23.917-7.552c0.8-0.937,5.364-4.67,29.096-8.692c14.188-2.405,28.025-3.682,28.164-3.694
		c1.446-0.132,2.658-1.152,3.036-2.556c3.114-11.578,10.469-31.268,16.942-34.812c0.963-0.527,1.536-0.453,1.924-0.329l0.962,0.305
		c0.404,0.128,0.878,0.386,1.325,1.321c3.131,6.554-2.644,26.724-7.02,37.898c-0.541,1.381-0.144,2.953,0.986,3.912
		c0.105,0.091,10.694,9.09,20.921,19.215c17.226,17.054,18.715,22.692,18.819,23.837c-1.093,0.289-6.167,0.711-23.886-7.551
		c-10.82-5.045-20.788-10.758-20.887-10.814c-0.909-0.523-2.004-0.605-2.981-0.227c-0.977,0.377-1.731,1.176-2.052,2.174
		l-8.999,27.995c-0.337,1.049-0.156,2.194,0.486,3.09c4.729,6.574,5.853,9.672,6.109,10.899c-2.093-0.031-6.946-1.685-11.107-3.856
		c-1.61-0.838-3.6-0.295-4.558,1.252c-0.956,1.545-0.559,3.568,0.914,4.635c11.208,8.126,25.825,12.194,43.692,12.194
		c12.475,0,26.534-1.984,42.118-5.956c4.711-1.2,9.251-2.51,13.556-3.855c1.778-2.889,3.423-5.868,4.925-8.931
		C216.846-736.055,209.973-733.933,202.741-732.094z"/>
</g>
<g>
	<path fill="#B1D34A" d="M100.385-439.594c-1.88-1.254-3.655-2.438-3.962-30.182c-0.143-12.864,0.137-25.615,0.14-25.743
		c0.018-0.796,0.309-1.562,0.824-2.169c0.504-0.594,12.626-14.357,36.523,1.356c15.202,9.999,23.214,8.624,26.637,6.915
		c2.935-1.465,4.015-3.867,4.056-4.53v-40.447c-7.176,2.816-20.56,5.286-35.356-5.884c-8.068-6.091-15.849-8.625-23.124-7.523
		c-8.012,1.207-13.303,6.466-15.129,8.562c0.739,17.445,3.546,88.131,0.889,95.725c-2.424,6.922-21.191,9.081-36.511,9.673
		c-6.452,0.249-12.926,0.225-19.268-0.055c18.811,29.906,52.102,49.785,90.039,49.785c38.358,0,71.967-20.319,90.661-50.78
		c-19.518,3.987-37.405,5.452-53,5.453C127.755-429.436,103.935-437.229,100.385-439.594z"/>
	<path fill="#B1D34A" d="M85.387-446.002c1.48-5.772,0.405-52.571-1.384-94.249c-0.033-0.779,0.196-1.547,0.652-2.18
		c0.303-0.419,7.56-10.294,20.432-12.234c9.196-1.389,18.727,1.591,28.341,8.847c17.679,13.345,32.014,3.412,32.615,2.982
		c1.058-0.755,2.457-0.861,3.612-0.266c1.155,0.595,1.889,1.78,1.889,3.08v46.094c0,3.218-2.553,7.851-7.431,10.481
		c-5.827,3.141-16.459,4.462-34.017-7.085c-15.548-10.224-24.066-5.433-26.626-3.383c-0.428,21.033-0.033,44.085,1.368,48.868
		c4.007,1.897,21.791,7.277,48.734,8.426c17.01,0.727,40.449-0.197,67.728-6.378c7.125-14.275,11.141-30.373,11.141-47.413
		c0-58.705-47.592-106.299-106.299-106.299c-58.706,0-106.299,47.594-106.299,106.299c0,17.832,4.397,34.634,12.155,49.393
		C58.466-439.381,82.338-442.953,85.387-446.002z"/>
	<path fill="#FFFFFF" d="M153.573-436.62c-26.943-1.148-44.728-6.528-48.734-8.426c-1.401-4.783-1.796-27.835-1.368-48.868
		c2.56-2.05,11.078-6.841,26.626,3.383c17.558,11.547,28.189,10.226,34.017,7.085c4.878-2.631,7.431-7.264,7.431-10.481v-46.094
		c0-1.3-0.733-2.485-1.889-3.08c-1.155-0.596-2.555-0.489-3.612,0.266c-0.602,0.43-14.937,10.362-32.615-2.982
		c-9.614-7.256-19.145-10.235-28.341-8.847c-12.872,1.94-20.129,11.815-20.432,12.234c-0.456,0.633-0.686,1.4-0.652,2.18
		c1.789,41.678,2.864,88.477,1.384,94.249c-3.049,3.049-26.921,6.621-53.388,4.983c1.278,2.432,2.648,4.808,4.104,7.123
		c6.342,0.279,12.815,0.304,19.268,0.055c15.319-0.592,34.087-2.751,36.511-9.673c2.657-7.594-0.149-78.279-0.889-95.725
		c1.826-2.097,7.117-7.355,15.129-8.562c7.275-1.102,15.056,1.433,23.124,7.523c14.797,11.17,28.181,8.7,35.356,5.884v40.447
		c-0.041,0.663-1.121,3.065-4.056,4.53c-3.423,1.709-11.435,3.084-26.637-6.915c-23.897-15.714-36.02-1.95-36.523-1.356
		c-0.516,0.607-0.807,1.373-0.824,2.169c-0.003,0.128-0.282,12.879-0.14,25.743c0.307,27.744,2.082,28.928,3.962,30.182
		c3.55,2.365,27.37,10.158,63.419,10.156c15.595-0.001,33.482-1.466,53-5.453c1.613-2.629,3.112-5.334,4.497-8.107
		C194.022-436.817,170.583-435.894,153.573-436.62z"/>
</g>
<g>
	<path fill="#58595B" d="M133.49,86.444c-0.295-0.009-0.593-0.018-0.891-0.026c-25.896-0.764-55.138-0.215-65.186,1.221
		c-4.416,0.631-3.842,11.614-3.336,21.304c0.184,3.496,0.372,7.111,0.372,10.561c0,1.986,0.605,3.398,1.905,4.448
		c4.52,3.649,15.835,2.248,19.444,1.468c0.243-0.053,0.488-0.078,0.732-0.078c0.919,0,1.813,0.365,2.474,1.033
		c0.833,0.847,1.178,2.06,0.911,3.218c-1.618,7.013-2.646,15.674-2.146,20.008c3.284-3.869,8.935-13.638,13.167-22.312
		c0.582-1.191,1.793-1.948,3.119-1.948h25.799c0.694,0,1.174-0.21,1.656-0.724c4.134-4.407,3.01-21.944,2.265-33.548
		C133.677,89.487,133.577,87.938,133.49,86.444z"/>
	<path fill="#58595B" d="M135.975,69.987c2.726,2.365,4.166,5.343,4.166,8.613c0,0.362,0.004,0.739,0.01,1.128
		c29.752,1.158,47.232,3.742,52.008,7.698c1.697,1.406,2.111,2.958,2.158,4.012c0.213,4.671,0.539,9.424,0.855,14.02
		c1.281,18.632,2.387,34.724-4.097,41.67c-2.167,2.32-4.979,3.496-8.357,3.496c-14.204,0-26.701-0.235-32.677-0.371
		c0.202,6.852-0.078,17.199-3.309,20.63c-1.014,1.078-2.34,1.671-3.734,1.671c-6.094,0-14.353-11.574-20.12-21.105
		c-3.213,6.306-7.335,17.339-1.954,25.062c12.543,17.996,67.017,7.947,101.303-0.552c7.437-14.517,11.632-30.969,11.632-48.4
		c0-58.705-47.592-106.299-106.299-106.299c-34.834,0-65.754,16.757-85.142,42.648C74.562,60.803,122.64,58.418,135.975,69.987z"/>
	<path fill="#58595B" d="M115.217,180.458c-10.632-15.291,4.169-36.972,4.804-37.887c0.68-0.981,1.793-1.55,3.015-1.488
		c1.194,0.057,2.274,0.724,2.861,1.766c5.802,10.31,12.855,19.91,16.207,22.257c0.896-3.027,1.288-10.759,0.838-18.204
		c-0.059-0.973,0.294-1.925,0.972-2.624c0.678-0.7,1.629-1.08,2.591-1.056c0.164,0.005,16.539,0.462,36.214,0.462
		c1.436,0,2.448-0.399,3.282-1.293c4.428-4.741,3.319-20.865,2.247-36.457c-0.302-4.383-0.613-8.906-0.828-13.402
		c-2.647-1.732-15.064-4.555-46.961-5.841c0.077,1.275,0.161,2.594,0.247,3.935c0.966,15.064,2.061,32.14-4.13,38.739
		c-1.789,1.909-4.112,2.917-6.719,2.917h-23.651c-1.21,2.388-3.419,6.644-5.93,10.975c-6.89,11.88-10.245,14.488-13.163,14.749
		c-1.686,0.153-3.242-0.565-4.267-1.965c-3.369-4.604-2.037-15.843-0.721-23.03c-5.713,0.618-14.706,0.714-20.12-3.65
		c-2.941-2.369-4.496-5.778-4.496-9.856c0-3.269-0.184-6.792-0.362-10.197c-0.694-13.279-1.413-27.01,9.286-28.538
		c10.405-1.486,39.25-2.06,65.663-1.31c0.373,0.011,0.74,0.021,1.109,0.033c-0.004-0.304-0.006-0.601-0.006-0.891
		c0-0.787-0.184-1.99-1.772-3.369c-3.979-3.453-17.652-8.845-64.548-6.174c-10.638,0.606-20.968,1.521-29.626,2.414
		C27.12,87.753,21.261,106.97,21.261,127.558c0,58.709,47.593,106.301,106.299,106.301c37.862,0,71.097-19.799,89.928-49.605
		c-25.945,6.14-47.22,9.215-63.729,9.215C134.139,193.469,121.246,189.131,115.217,180.458z"/>
	<path fill="#FFFFFF" d="M120.924,176.51c-5.381-7.723-1.259-18.756,1.954-25.062c5.768,9.531,14.026,21.105,20.12,21.105
		c1.395,0,2.721-0.593,3.734-1.671c3.23-3.431,3.511-13.778,3.309-20.63c5.976,0.136,18.473,0.371,32.677,0.371
		c3.379,0,6.19-1.176,8.357-3.496c6.483-6.946,5.378-23.038,4.097-41.67c-0.316-4.596-0.643-9.349-0.855-14.02
		c-0.047-1.054-0.461-2.605-2.158-4.012c-4.775-3.956-22.256-6.54-52.008-7.698c-0.006-0.389-0.01-0.766-0.01-1.128
		c0-3.271-1.44-6.248-4.166-8.613c-13.335-11.569-61.413-9.185-93.557-6.08c-1.828,2.441-3.548,4.968-5.165,7.564
		c8.658-0.893,18.988-1.808,29.626-2.414c46.896-2.671,60.568,2.721,64.548,6.174c1.589,1.379,1.772,2.582,1.772,3.369
		c0,0.29,0.002,0.587,0.006,0.891c-0.369-0.012-0.736-0.022-1.109-0.033c-26.413-0.75-55.258-0.177-65.663,1.31
		c-10.699,1.528-9.98,15.259-9.286,28.538c0.179,3.405,0.362,6.929,0.362,10.197c0,4.078,1.555,7.487,4.496,9.856
		c5.414,4.364,14.407,4.269,20.12,3.65c-1.316,7.188-2.648,18.427,0.721,23.03c1.024,1.399,2.581,2.118,4.267,1.965
		c2.918-0.261,6.273-2.869,13.163-14.749c2.511-4.331,4.72-8.587,5.93-10.975h23.651c2.606,0,4.93-1.008,6.719-2.917
		c6.19-6.6,5.096-23.675,4.13-38.739c-0.086-1.341-0.17-2.659-0.247-3.935c31.896,1.286,44.313,4.108,46.961,5.841
		c0.215,4.496,0.526,9.02,0.828,13.402c1.072,15.592,2.181,31.716-2.247,36.457c-0.834,0.894-1.847,1.293-3.282,1.293
		c-19.675,0-36.05-0.457-36.214-0.462c-0.962-0.024-1.913,0.355-2.591,1.056c-0.678,0.699-1.03,1.651-0.972,2.624
		c0.45,7.445,0.058,15.177-0.838,18.204c-3.352-2.347-10.405-11.947-16.207-22.257c-0.587-1.042-1.667-1.709-2.861-1.766
		c-1.222-0.062-2.335,0.507-3.015,1.488c-0.635,0.915-15.436,22.596-4.804,37.887c6.029,8.673,18.922,13.011,38.542,13.01
		c16.509,0,37.783-3.075,63.729-9.215c1.697-2.688,3.283-5.452,4.739-8.295C187.94,184.457,133.467,194.506,120.924,176.51z
		 M131.513,124.616c-0.482,0.514-0.962,0.724-1.656,0.724h-25.799c-1.326,0-2.537,0.757-3.119,1.948
		c-4.232,8.674-9.883,18.442-13.167,22.312c-0.501-4.334,0.527-12.995,2.146-20.008c0.267-1.158-0.078-2.371-0.911-3.218
		c-0.66-0.668-1.555-1.033-2.474-1.033c-0.244,0-0.489,0.025-0.732,0.078c-3.609,0.78-14.925,2.182-19.444-1.468
		c-1.3-1.05-1.905-2.462-1.905-4.448c0-3.449-0.188-7.064-0.372-10.561c-0.506-9.689-1.08-20.673,3.336-21.304
		c10.048-1.436,39.29-1.984,65.186-1.221c0.298,0.009,0.596,0.018,0.891,0.026c0.087,1.494,0.187,3.043,0.287,4.624
		C134.522,102.672,135.646,120.209,131.513,124.616z"/>
</g>
<g>
	<path fill="#682F75" d="M155.477-123.119c-0.635-36.378-24.208-42.718-25.226-42.973c-1.385-0.348-2.424-1.508-2.605-2.924
		c-0.183-1.415,0.511-2.801,1.761-3.488c7.188-3.951,11.652-11.496,11.652-19.69c0-12.382-10.073-22.454-22.454-22.454
		c-12.382,0-22.456,10.072-22.456,22.454c0,7.887,4.219,15.292,11.01,19.326c1.164,0.69,1.819,1.995,1.681,3.341
		c-0.14,1.346-1.048,2.488-2.328,2.927c-1.029,0.36-25.054,9.141-25.91,41.365c3.005,1.965,11.142,6.576,24.037,8.688
		c16.622,2.723,33.39,0.122,48.204-4.438C153.993-121.857,154.871-122.59,155.477-123.119z"/>
	<path fill="#682F75" d="M207.036-225.396c-11.328,11.632-31.902,17.757-44.457,20.56c5.699,4.559,9.283,11.572,9.283,19.236
		c0,6.661-2.693,12.93-7.3,17.49c7.863,3.958,19.99,14.034,19.99,38.532v0.82c0,1.309-0.737,2.507-1.905,3.098
		c-7.568,3.825-16.599,7.774-26.527,10.92c-6.102,4.487-17.483,11.307-34.416,15.361c-7.905,1.894-17.585,3.272-28.994,3.272
		c-16.676,0-37.054-2.946-61.023-11.536c17.683,34.156,53.342,57.501,94.456,57.501c58.707,0,106.299-47.592,106.299-106.301
		C232.441-182.756,222.875-206.833,207.036-225.396z"/>
	<path fill="#682F75" d="M119.604-106.014c3.885-0.911,7.462-1.983,10.73-3.143c-8.929,0.983-18.14,0.938-27.346-0.629
		c-18.172-3.091-27.671-10.652-28.066-10.974c-0.813-0.659-1.286-1.649-1.286-2.696c0-20.177,8.248-32.594,15.166-39.458
		c3.562-3.533,7.133-5.991,9.945-7.613c-5.988-5.516-9.539-13.389-9.539-21.668c0-16.208,13.187-29.396,29.396-29.396
		c16.209,0,29.396,13.188,29.396,29.396c0,8.475-3.648,16.418-9.817,21.931c2.705,1.441,5.994,3.613,9.265,6.812
		c6.561,6.417,14.332,18.362,14.945,39.18c5.494-2.089,10.605-4.368,15.206-6.629c-0.239-12.208-3.812-21.422-10.63-27.395
		c-5.03-4.408-10.062-5.348-10.111-5.356c-1.457-0.243-2.601-1.384-2.849-2.84c-0.248-1.457,0.453-2.912,1.749-3.624
		c5.652-3.109,9.164-9.043,9.164-15.485c0-8.354-5.929-15.63-14.098-17.299c-1.656-0.338-2.828-1.822-2.773-3.514
		c0.056-1.69,1.322-3.095,2.999-3.325c0.424-0.059,36.864-5.243,51.345-20.754c-19.316-19.888-46.339-32.249-76.252-32.249
		c-58.706,0-106.299,47.594-106.299,106.299c0,14.079,2.743,27.516,7.714,39.813C54.584-106.067,87.821-98.562,119.604-106.014z"/>
	<path fill="#FFFFFF" d="M121.704-99.379c16.933-4.055,28.314-10.874,34.416-15.361c9.929-3.146,18.959-7.095,26.527-10.92
		c1.168-0.591,1.905-1.789,1.905-3.098v-0.82c0-24.498-12.127-34.574-19.99-38.532c4.606-4.561,7.3-10.829,7.3-17.49
		c0-7.664-3.584-14.678-9.283-19.236c12.555-2.803,33.129-8.928,44.457-20.56c-1.492-1.749-3.041-3.448-4.642-5.096
		c-14.48,15.511-50.921,20.695-51.345,20.754c-1.677,0.23-2.943,1.635-2.999,3.325c-0.055,1.691,1.117,3.176,2.773,3.514
		c8.169,1.669,14.098,8.945,14.098,17.299c0,6.442-3.512,12.376-9.164,15.485c-1.296,0.712-1.997,2.167-1.749,3.624
		c0.248,1.456,1.392,2.597,2.849,2.84c0.05,0.009,5.081,0.948,10.111,5.356c6.818,5.973,10.391,15.187,10.63,27.395
		c-4.601,2.261-9.712,4.54-15.206,6.629c-0.613-20.817-8.385-32.763-14.945-39.18c-3.271-3.199-6.56-5.371-9.265-6.812
		c6.169-5.513,9.817-13.456,9.817-21.931c0-16.208-13.187-29.396-29.396-29.396c-16.21,0-29.396,13.188-29.396,29.396
		c0,8.279,3.551,16.152,9.539,21.668c-2.812,1.622-6.384,4.08-9.945,7.613c-6.918,6.864-15.166,19.281-15.166,39.458
		c0,1.047,0.473,2.037,1.286,2.696c0.396,0.321,9.895,7.883,28.066,10.974c9.206,1.567,18.417,1.612,27.346,0.629
		c-3.269,1.159-6.846,2.231-10.73,3.143c-31.782,7.452-65.02-0.054-92.046-10.615c1.241,3.069,2.618,6.067,4.129,8.986
		c23.97,8.59,44.348,11.536,61.023,11.536C104.119-96.106,113.799-97.485,121.704-99.379z M104.638-116.547
		c-12.896-2.112-21.032-6.724-24.037-8.688c0.856-32.225,24.881-41.005,25.91-41.365c1.28-0.438,2.188-1.581,2.328-2.927
		c0.139-1.346-0.517-2.65-1.681-3.341c-6.791-4.034-11.01-11.439-11.01-19.326c0-12.382,10.074-22.454,22.456-22.454
		c12.381,0,22.454,10.072,22.454,22.454c0,8.194-4.465,15.739-11.652,19.69c-1.25,0.688-1.943,2.073-1.761,3.488
		c0.182,1.416,1.221,2.576,2.605,2.924c1.018,0.255,24.591,6.595,25.226,42.973c-0.605,0.529-1.483,1.262-2.635,2.135
		C138.027-116.425,121.26-113.824,104.638-116.547z"/>
</g>
<g>
	<path fill="#58595B" d="M454.02,92.033c-15.068-0.367-32.151-0.785-46.594-0.519c-16.452,0.304-22.961,1.425-25.525,2.222
		c4.66,8.682,35.143,44.921,48.111,44.921c7.265,0,21.295-13.446,31.54-23.264c12.229-11.72,18.854-17.806,23.993-17.073
		c1.571,0.223,2.79,1.482,2.963,3.059c1.112,10.199,2.474,68.322-0.603,75.501c-0.935,2.183-3.342,3.464-8.309,4.421
		c-8.625,1.662-24.5,2.256-40.385,2.256c-6.409,0-12.819-0.098-18.758-0.259c-11.487-0.313-22.271-0.895-30.366-1.636
		c-13.423-1.229-15.651-2.449-16.896-3.694c-2.334-2.334-2.525-7.849-2.328-30.423c0.107-12.396,0.304-35.002-1.835-39.892
		c-7.861-0.299-25.548-0.271-42.501-0.187c-1.245,6.508-1.904,13.221-1.904,20.091c0,58.709,47.593,106.301,106.299,106.301
		c58.707,0,106.299-47.592,106.299-106.301c0-19.064-5.023-36.953-13.812-52.425c-15.692,8.767-30.242,16.146-38.78,17.063
		C480.187,92.675,468.64,92.392,454.02,92.033z"/>
	<path fill="#58595B" d="M370.421,100.766c6.766,0.325,7.696,10.841,7.383,46.84c-0.086,9.812-0.19,21.85,0.54,25.382
		c4.329,1.322,23.318,3.167,51.531,3.562c32.656,0.444,48.482-1.443,51.809-2.952c1.549-6.773,1.464-49.172,0.29-67.05
		c-4.053,2.772-10.792,9.232-15.62,13.858c-12.924,12.386-26.288,25.192-36.342,25.192c-7.704,0-18.647-7.302-32.525-21.702
		c-9.874-10.248-18.927-21.834-21.66-26.805c-2.427-2.509-1.873-4.886-1.499-5.83c2.53-6.389,18.949-7.655,79.863-6.167
		c13.795,0.336,25.71,0.63,29.697,0.201c7.269-0.782,21.236-7.913,35.891-16.089c-19.003-28.88-51.7-47.948-88.856-47.948
		c-49.361,0-90.861,33.649-102.823,79.259C345.455,100.434,363.263,100.422,370.421,100.766z"/>
	<path fill="#FFFFFF" d="M483.888,85.296c-3.987,0.429-15.902,0.135-29.697-0.201c-60.914-1.488-77.333-0.222-79.863,6.167
		c-0.374,0.944-0.928,3.321,1.499,5.83c2.733,4.971,11.786,16.557,21.66,26.805c13.878,14.4,24.821,21.702,32.525,21.702
		c10.054,0,23.418-12.807,36.342-25.192c4.828-4.626,11.567-11.086,15.62-13.858c1.174,17.878,1.259,60.276-0.29,67.05
		c-3.326,1.509-19.152,3.396-51.809,2.952c-28.213-0.396-47.202-2.24-51.531-3.562c-0.73-3.532-0.626-15.57-0.54-25.382
		c0.313-35.999-0.617-46.515-7.383-46.84c-7.158-0.344-24.966-0.332-42.322-0.248c-0.601,2.287-1.123,4.604-1.571,6.949
		c16.953-0.085,34.64-0.112,42.501,0.187c2.139,4.89,1.942,27.496,1.835,39.892c-0.197,22.574-0.006,28.089,2.328,30.423
		c1.245,1.245,3.474,2.465,16.896,3.694c8.095,0.741,18.879,1.322,30.366,1.636c5.938,0.161,12.349,0.259,18.758,0.259
		c15.885,0,31.76-0.594,40.385-2.256c4.967-0.957,7.374-2.238,8.309-4.421c3.076-7.179,1.715-65.302,0.603-75.501
		c-0.173-1.576-1.392-2.836-2.963-3.059c-5.139-0.732-11.764,5.354-23.993,17.073c-10.245,9.817-24.275,23.264-31.54,23.264
		c-12.969,0-43.451-36.239-48.111-44.921c2.564-0.797,9.073-1.918,25.525-2.222c14.442-0.267,31.525,0.151,46.594,0.519
		c14.62,0.358,26.167,0.642,30.609,0.163c8.538-0.917,23.088-8.297,38.78-17.063c-1.146-2.019-2.359-3.993-3.631-5.926
		C505.124,77.383,491.156,84.514,483.888,85.296z"/>
</g>
<g>
	<path fill="#58595B" d="M765.688,153.367c-2.318-0.277-4.553-0.967-6.669-2.062c-0.114-0.059-0.225-0.124-0.331-0.195
		c-1.224-0.815-2.287-1.688-3.21-2.577l-2.118,18.409L765.688,153.367z"/>
	<path fill="#58595B" d="M692.813,174.283c-2.851-3.946-4.671-8.304-5.11-11.966c-0.429-3.562,0.872-6.677,3.567-8.543
		c2.935-2.031,7.043-2.193,10.467-0.412c3.809,1.982,6.009,5.858,6.036,10.635c0.021,4.092-1.555,7.94-4.571,11.193
		c1.097,0.847,2.265,1.574,3.484,2.137c4.025,1.855,7.888,1.589,11.474-0.797c7.552-5.022,14.475-3.262,19.529-1.979
		c3.191,0.812,5.339,1.282,7.127,0.757l3.758-36.726c0.027-0.279,0.091-0.555,0.185-0.818l38.038-106.053
		c-13.926-6.698-29.535-10.452-46.021-10.452c-58.706,0-106.299,47.594-106.299,106.299c0,15.799,3.451,30.791,9.633,44.269
		c16.361,4.319,30.062,5.171,34.656,5.336C683.771,177.357,688.805,176.266,692.813,174.283z"/>
	<path fill="#58595B" d="M698.389,170.164c1.634-1.874,2.454-3.933,2.443-6.129c-0.016-2.752-1.26-3.975-2.3-4.516
		c-0.601-0.313-1.226-0.445-1.789-0.445c-0.617,0-1.161,0.158-1.522,0.409c-0.198,0.137-0.801,0.554-0.626,2.005
		C694.907,164.084,696.29,167.259,698.389,170.164z"/>
	<path fill="#58595B" d="M814.93,51.408l-31.535,87.466c-0.65,1.804-2.64,2.733-4.442,2.088c-1.804-0.65-2.738-2.64-2.088-4.443
		l32.507-90.158c-5.071-4.287-10.547-8.109-16.366-11.398l-36.646,102.175c0.067,0.166,0.127,0.336,0.169,0.516
		c0.036,0.146,1.151,4.363,5.849,7.574c1.778,0.887,3.68,1.338,5.655,1.338c2.941,0,5.061-1.006,5.081-1.017
		c1.498-0.72,3.309-0.286,4.303,1.044c0.993,1.331,0.918,3.173-0.198,4.402l-25.97,28.599c-0.348,0.383-0.767,0.669-1.222,0.86
		c-0.011,0.008-0.019,0.018-0.029,0.024c-0.026,0.018-0.053,0.031-0.079,0.049c-0.02,0.013-0.039,0.024-0.06,0.035
		c-4.695,3.044-9.572,1.811-13.879,0.717c-4.823-1.226-8.988-2.284-13.975,1.031c-3.163,2.104-6.618,3.165-10.147,3.165
		c-2.683,0-5.406-0.612-8.077-1.844c-2.237-1.031-4.306-2.427-6.164-4.052c-5.328,3.092-12.202,4.76-19.097,4.521
		c-4.23-0.152-15.842-0.861-30.227-4.109c18.276,32.168,52.844,53.868,92.483,53.868c58.707,0,106.299-47.592,106.299-106.301
		C847.074,97.697,834.757,70.718,814.93,51.408z"/>
	<path fill="#FFFFFF" d="M776.864,136.519c-0.65,1.804,0.284,3.793,2.088,4.443c1.803,0.646,3.792-0.284,4.442-2.088l31.535-87.466
		c-1.792-1.747-3.646-3.431-5.559-5.048L776.864,136.519z"/>
	<path fill="#FFFFFF" d="M749.917,180.526c-0.02,0.013-0.04,0.023-0.06,0.035C749.878,180.551,749.897,180.539,749.917,180.526z"/>
	<path fill="#FFFFFF" d="M750.891,179.598c-0.07,0.1-0.15,0.194-0.232,0.286C750.74,179.792,750.819,179.698,750.891,179.598z"/>
	<path fill="#FFFFFF" d="M751.217,179.033c-0.051,0.109-0.107,0.215-0.169,0.319C751.109,179.249,751.166,179.144,751.217,179.033z"
		/>
	<path fill="#FFFFFF" d="M751.428,178.424c-0.027,0.113-0.062,0.225-0.1,0.334C751.366,178.648,751.399,178.538,751.428,178.424z"/>
	<path fill="#FFFFFF" d="M750.465,180.093c-0.1,0.095-0.21,0.181-0.322,0.264C750.255,180.273,750.363,180.189,750.465,180.093z"/>
	<path fill="#FFFFFF" d="M648.292,179.99c-1.507-2.652-2.903-5.376-4.183-8.164"/>
	<path fill="#FFFFFF" d="M749.917,180.526c0.026-0.018,0.053-0.031,0.079-0.049c0.011-0.007,0.019-0.017,0.029-0.024
		c-0.007,0.003-0.014,0.004-0.021,0.007C749.975,180.48,749.948,180.507,749.917,180.526z"/>
	<path fill="#FFFFFF" d="M750.005,180.46c0.007-0.003,0.014-0.004,0.021-0.007c0.043-0.028,0.076-0.065,0.117-0.097
		C750.097,180.392,750.053,180.429,750.005,180.46z"/>
	<path fill="#FFFFFF" d="M751.048,179.353c-0.05,0.083-0.101,0.166-0.157,0.245C750.947,179.518,750.999,179.436,751.048,179.353z"
		/>
	<path fill="#FFFFFF" d="M750.658,179.884c-0.063,0.072-0.125,0.144-0.193,0.209C750.534,180.026,750.595,179.956,750.658,179.884z"
		/>
	<path fill="#FFFFFF" d="M751.328,178.758c-0.034,0.094-0.071,0.185-0.111,0.275C751.258,178.942,751.294,178.852,751.328,178.758z"
		/>
	<path fill="#FFFFFF" d="M751.491,178.106c-0.017,0.107-0.037,0.214-0.063,0.317C751.455,178.319,751.475,178.214,751.491,178.106z"
		/>
	<path fill="#FFFFFF" d="M773.112,145.548c-0.021,0.011-2.14,1.017-5.081,1.017c-1.976,0-3.877-0.451-5.655-1.338
		c-4.697-3.211-5.812-7.428-5.849-7.574c-0.042-0.18-0.102-0.35-0.169-0.516l36.646-102.175c-2.029-1.148-4.098-2.236-6.208-3.251
		l-38.038,106.053c-0.094,0.264-0.157,0.539-0.185,0.818l-3.758,36.726c-1.788,0.525-3.936,0.055-7.127-0.757
		c-5.055-1.282-11.978-3.043-19.529,1.979c-3.586,2.386-7.448,2.652-11.474,0.797c-1.22-0.562-2.388-1.29-3.484-2.137
		c3.017-3.253,4.593-7.102,4.571-11.193c-0.027-4.776-2.228-8.652-6.036-10.635c-3.424-1.781-7.532-1.619-10.467,0.412
		c-2.695,1.866-3.996,4.98-3.567,8.543c0.439,3.662,2.26,8.02,5.11,11.966c-4.009,1.982-9.043,3.074-14.048,2.879
		c-4.595-0.165-18.295-1.017-34.656-5.336c1.279,2.788,2.676,5.512,4.183,8.164c14.385,3.248,25.996,3.957,30.227,4.109
		c6.895,0.239,13.769-1.429,19.097-4.521c1.858,1.625,3.927,3.021,6.164,4.052c2.671,1.231,5.395,1.844,8.077,1.844
		c3.529,0,6.984-1.061,10.147-3.165c4.986-3.315,9.151-2.257,13.975-1.031c4.307,1.094,9.184,2.327,13.879-0.717
		c0.02-0.012,0.04-0.022,0.06-0.035c0.031-0.02,0.058-0.046,0.088-0.066c0.048-0.031,0.092-0.068,0.138-0.104
		c-0.041,0.031-0.074,0.068-0.117,0.097c0.455-0.191,0.874-0.478,1.222-0.86l25.97-28.599c1.116-1.229,1.191-3.071,0.198-4.402
		C776.421,145.262,774.61,144.828,773.112,145.548z M698.389,170.164c-2.099-2.905-3.481-6.08-3.794-8.676
		c-0.175-1.451,0.428-1.868,0.626-2.005c0.361-0.251,0.905-0.409,1.522-0.409c0.563,0,1.188,0.132,1.789,0.445
		c1.04,0.541,2.284,1.764,2.3,4.516C700.843,166.231,700.022,168.29,698.389,170.164z M753.359,166.942l2.118-18.409
		c0.923,0.889,1.986,1.762,3.21,2.577c0.106,0.071,0.217,0.137,0.331,0.195c2.116,1.095,4.351,1.784,6.669,2.062L753.359,166.942z"
		/>
</g>
<g>
	<path fill="#ED1556" d="M694.956-744.434c-11.298-21.66-4.872-40.811-4.804-40.998c2.131-5.861,5.02-19.9,0.699-31.081
		c-3.156-8.167-1.829-15.918,3.155-18.429c2.249-1.133,8.241-2.568,15.277,8.536c2.735,4.317,4.207,10.34,5.505,15.653
		c0.668,2.735,1.596,6.529,2.512,8.598c2.499-3.466,6.881-11.756,10.235-18.104c3.798-7.188,7.725-14.62,11.448-20.604
		c4.964-7.98,8.361-11.519,11.728-12.21c1.677-0.346,3.316,0.049,4.625,1.104c4.449,3.592,4.614,9.904,2.869,16.847
		c8.031-10.298,13.816-15.804,18.136-16.03c1.7-0.083,3.26,0.56,4.359,1.828c4.059,4.683,2.279,12.916-3.395,24.38
		c6.432-5.152,11.099-6.14,14.734-3.507c2.092,1.515,3.368,3.664,3.691,6.215c0.646,5.124-2.716,11.55-7.62,18.414
		c3.675-1.659,6.793-2.198,9.317-1.248c1.305,0.491,3.599,1.853,4.307,5.445c0.9,4.568-3.407,9.347-12.45,18.868
		c-3.837,4.04-8.186,8.618-11.873,13.226c-1.674,2.09-3.144,4.825-4.846,7.991c-4.729,8.801-11.207,20.854-29.01,31.362
		c-5.348,3.158-11.396,2.887-17.491-0.782c-2.692-1.621-5.303-3.883-7.725-6.582c-2.191,0.665-4.49,1.329-6.873,1.99
		c20.747,21.064,57.62,30.177,93.047,33.705c25.841-19.392,42.559-50.28,42.559-85.076c0-58.705-47.592-106.299-106.299-106.299
		c-58.706,0-106.299,47.594-106.299,106.299c0,21.296,6.266,41.125,17.048,57.754c15.479-2.979,32.668-6.571,47.656-10.322
		C697.61-739.731,696.203-742.045,694.956-744.434z"/>
	<path fill="#ED1556" d="M703.887-731.533c-15.482,3.971-33.235,7.69-48.017,10.572c19.401,25.715,50.211,42.34,84.905,42.34
		c20.06,0,38.82-5.559,54.831-15.218c-23.957-2.953-44.179-8.142-60.355-15.533C722.124-715.37,711.629-722.793,703.887-731.533z"/>
	<path fill="#ED1556" d="M753.029-764.364c0.881-2.896,0.244-5.778-1.896-8.569c-2.353-3.067-7.199-2.64-9.881-2.112
		c-1.581,0.312-3.146,0.789-4.642,1.382c0.667,6.459-0.884,13.204-4.473,16.312c-3.104,2.688-7.087,2.41-10.648-0.749
		c-2.572-2.279-3.501-5.328-2.615-8.586c1.123-4.129,5.053-7.957,9.822-10.789c-0.647-1.735-1.59-3.214-2.854-4.153
		c-1.003-0.747-2.211-1.12-3.615-1.12c-1.695,0-3.677,0.545-5.929,1.63c-3.209,1.548-4.953,4.864-5.185,9.859
		c-0.394,8.473,3.789,19.589,9.652,27.674c0.399-0.131,0.795-0.263,1.184-0.394C746.075-752.135,751.778-760.251,753.029-764.364z"
		/>
	<path fill="#ED1556" d="M704.181-771.582c0.354-7.629,3.501-13.089,9.103-15.79c12.048-5.812,18.05,0.716,20.068,3.791
		c0.63,0.957,1.169,2.008,1.622,3.125c1.667-0.609,3.336-1.085,4.938-1.401c7.356-1.448,13.297,0.224,16.73,4.702
		c3.479,4.537,4.554,9.798,3.028,14.812c-2.842,9.333-14.268,17.543-33.971,24.413c1.287,1.197,2.611,2.22,3.946,3.024
		c3.884,2.337,7.28,2.584,10.382,0.752c16.136-9.525,21.841-20.142,26.425-28.671c1.785-3.321,3.472-6.459,5.541-9.045
		c3.871-4.836,8.328-9.527,12.259-13.667c4.327-4.556,10.23-10.771,10.639-12.898c-0.019-0.073-0.037-0.132-0.054-0.177
		c-1.185-0.241-5.209,0.558-18.366,10.683c-2.766,2.128-4.95,3.808-7.183,1.495c-0.225-0.232-2.132-2.352,0.085-5.034l2.139-2.582
		c7.183-8.651,18.038-21.726,17.332-27.316c-0.081-0.647-0.335-1.07-0.875-1.462c-0.199-0.08-5.098-1.59-25.61,24.318
		c-1.906,2.407-3.553,4.486-6.233,2.788c-1.5-0.949-2.017-2.955-1.23-4.547c0.626-1.267,2.014-3.477,3.936-6.535
		c3.649-5.81,9.167-14.591,12.958-22.597c4.246-8.968,4.381-12.88,4.048-14.452c-3.937,2.177-12.783,13.092-26.34,32.507
		c-1.433,2.051-2.626,3.759-3.484,4.941c-1.31,1.804-3.102,4.271-5.892,2.803c-1.329-0.703-2.387-2.443-1.566-4.606
		c0.374-0.986,1.154-2.456,2.618-5.187c2.681-5.005,6.733-12.569,9.179-19.646c2.157-6.245,2.565-10.851,1.182-12.91
		c-4.06,2.818-12.96,19.662-17.861,28.937c-9.905,18.749-12.964,24.104-17.585,22.812c-4.721-1.311-6.186-7.309-8.041-14.902
		c-1.172-4.795-2.499-10.229-4.626-13.586c-3.604-5.69-6.049-6.168-6.29-6.053c-0.719,0.362-2.026,3.978,0.196,9.729
		c5.052,13.074,1.968,28.752-0.65,35.955c-0.058,0.158-5.327,16.7,4.436,35.415c1.525,2.925,3.299,5.684,5.293,8.285
		c2.569-0.688,5.04-1.378,7.398-2.069C707.738-750.527,703.74-762.116,704.181-771.582z"/>
	<path fill="#ED1556" d="M726.094-763.296c0.754,0.668,1.23,0.818,1.34,0.818h0.001c0.342-0.12,1.584-1.612,2.135-5.087
		c0.116-0.733,0.191-1.506,0.225-2.297c-2.257,1.714-3.822,3.531-4.22,4.996C725.409-764.261,725.445-763.871,726.094-763.296z"/>
	<path fill="#FFFFFF" d="M711.469-733.551c2.383-0.661,4.682-1.325,6.873-1.99c2.422,2.699,5.032,4.961,7.725,6.582
		c6.096,3.669,12.144,3.94,17.491,0.782c17.803-10.509,24.28-22.562,29.01-31.362c1.702-3.166,3.172-5.901,4.846-7.991
		c3.688-4.607,8.036-9.186,11.873-13.226c9.043-9.521,13.351-14.3,12.45-18.868c-0.708-3.593-3.002-4.954-4.307-5.445
		c-2.524-0.95-5.643-0.411-9.317,1.248c4.904-6.864,8.267-13.29,7.62-18.414c-0.323-2.551-1.6-4.7-3.691-6.215
		c-3.636-2.633-8.303-1.646-14.734,3.507c5.674-11.464,7.453-19.697,3.395-24.38c-1.1-1.269-2.659-1.911-4.359-1.828
		c-4.319,0.227-10.104,5.732-18.136,16.03c1.745-6.942,1.58-13.255-2.869-16.847c-1.309-1.056-2.948-1.45-4.625-1.104
		c-3.366,0.691-6.764,4.229-11.728,12.21c-3.724,5.984-7.65,13.417-11.448,20.604c-3.354,6.348-7.736,14.638-10.235,18.104
		c-0.916-2.068-1.844-5.862-2.512-8.598c-1.298-5.313-2.77-11.336-5.505-15.653c-7.036-11.104-13.028-9.669-15.277-8.536
		c-4.984,2.511-6.312,10.262-3.155,18.429c4.32,11.181,1.432,25.22-0.699,31.081c-0.068,0.188-6.494,19.338,4.804,40.998
		c1.247,2.389,2.654,4.702,4.225,6.943c-14.988,3.751-32.177,7.343-47.656,10.322c1.376,2.122,2.826,4.192,4.346,6.207
		c14.781-2.882,32.534-6.602,48.017-10.572c7.742,8.74,18.237,16.163,31.364,22.161c16.177,7.392,36.398,12.58,60.355,15.533
		c3.074-1.855,6.047-3.86,8.909-6.007C769.089-703.374,732.216-712.486,711.469-733.551z M720.767-743.587
		c-5.863-8.085-10.046-19.201-9.652-27.674c0.231-4.995,1.976-8.312,5.185-9.859c2.252-1.085,4.233-1.63,5.929-1.63
		c1.404,0,2.612,0.373,3.615,1.12c1.265,0.939,2.207,2.418,2.854,4.153c-4.77,2.832-8.699,6.66-9.822,10.789
		c-0.886,3.258,0.043,6.307,2.615,8.586c3.562,3.159,7.544,3.437,10.648,0.749c3.589-3.107,5.14-9.853,4.473-16.312
		c1.495-0.593,3.061-1.07,4.642-1.382c2.682-0.527,7.528-0.955,9.881,2.112c2.14,2.791,2.776,5.674,1.896,8.569
		c-1.251,4.113-6.954,12.229-31.079,20.384C721.562-743.85,721.166-743.718,720.767-743.587z M729.794-769.861
		c-0.033,0.791-0.108,1.563-0.225,2.297c-0.551,3.475-1.793,4.967-2.135,5.087h-0.001c-0.109,0-0.586-0.15-1.34-0.818
		c-0.648-0.575-0.685-0.965-0.52-1.569C725.972-766.33,727.537-768.147,729.794-769.861z M706.404-739.359
		c-1.994-2.602-3.768-5.36-5.293-8.285c-9.763-18.715-4.493-35.257-4.436-35.415c2.618-7.203,5.702-22.881,0.65-35.955
		c-2.223-5.751-0.915-9.366-0.196-9.729c0.241-0.115,2.686,0.362,6.29,6.053c2.127,3.356,3.454,8.791,4.626,13.586
		c1.855,7.594,3.32,13.592,8.041,14.902c4.621,1.292,7.68-4.063,17.585-22.812c4.901-9.274,13.802-26.118,17.861-28.937
		c1.384,2.06,0.976,6.665-1.182,12.91c-2.445,7.077-6.498,14.642-9.179,19.646c-1.464,2.73-2.244,4.2-2.618,5.187
		c-0.82,2.163,0.237,3.903,1.566,4.606c2.79,1.469,4.582-0.999,5.892-2.803c0.858-1.183,2.052-2.891,3.484-4.941
		c13.557-19.415,22.403-30.33,26.34-32.507c0.333,1.572,0.198,5.484-4.048,14.452c-3.791,8.006-9.309,16.787-12.958,22.597
		c-1.922,3.059-3.31,5.269-3.936,6.535c-0.786,1.592-0.27,3.598,1.23,4.547c2.681,1.698,4.327-0.381,6.233-2.788
		c20.513-25.908,25.411-24.398,25.61-24.318c0.54,0.392,0.794,0.814,0.875,1.462c0.706,5.591-10.149,18.665-17.332,27.316
		l-2.139,2.582c-2.217,2.683-0.31,4.802-0.085,5.034c2.232,2.312,4.417,0.633,7.183-1.495
		c13.157-10.125,17.182-10.924,18.366-10.683c0.017,0.045,0.035,0.104,0.054,0.177c-0.408,2.128-6.312,8.343-10.639,12.898
		c-3.931,4.14-8.388,8.831-12.259,13.667c-2.069,2.586-3.756,5.724-5.541,9.045c-4.584,8.529-10.289,19.146-26.425,28.671
		c-3.102,1.832-6.498,1.585-10.382-0.752c-1.335-0.805-2.659-1.827-3.946-3.024c19.703-6.87,31.129-15.08,33.971-24.413
		c1.525-5.015,0.45-10.275-3.028-14.812c-3.434-4.479-9.374-6.15-16.73-4.702c-1.603,0.316-3.271,0.792-4.938,1.401
		c-0.453-1.117-0.992-2.168-1.622-3.125c-2.019-3.075-8.021-9.604-20.068-3.791c-5.602,2.701-8.749,8.161-9.103,15.79
		c-0.44,9.466,3.558,21.055,9.622,30.153C711.444-740.737,708.974-740.048,706.404-739.359z"/>
</g>
<g>
	<path fill="#14B1E7" d="M808.854-449.043c0,1.917-1.554,3.471-3.471,3.471c-38.526,0-60.042,0.624-60.255,0.63
		c-1.42,0.026-2.724-0.788-3.289-2.094c-0.563-1.306-0.273-2.824,0.732-3.829c15.009-15.009,35.457-19.141,59.341-12.051v-64.821
		c-7.715-2.79-35.242-10.998-53.571,6.025v56.354c0.017,0.693-0.019,4.697-2.557,7.296c-1.319,1.35-3.051,2.063-5.01,2.063
		s-3.691-0.714-5.011-2.064c-2.537-2.599-2.572-6.603-2.555-7.378l-0.001-56.271c-18.375-17.073-45.86-8.834-53.571-6.03v64.826
		c23.881-7.089,44.331-2.958,59.34,12.051c0.987,0.986,1.286,2.471,0.76,3.764s-1.778,2.145-3.175,2.161
		c-0.073,0.001-2.469,0.02-60.396,0.02c-1.916,0-3.471-1.554-3.471-3.471v-4.73c-12.12,4.921-21.66,11.378-25.12,13.863
		c18.079,32.871,53.036,55.148,93.199,55.148c40.164,0,75.12-22.277,93.199-55.148c-3.46-2.485-12.999-8.942-25.12-13.863V-449.043z
		"/>
	<path fill="#14B1E7" d="M679.638-451.861c25.447,0,39.519-0.005,47.293-0.01c-12.688-8.554-28.544-9.829-47.293-3.78V-451.861z"/>
	<path fill="#14B1E7" d="M672.696-530.112c0-1.376,0.813-2.622,2.073-3.177c0.401-0.177,9.958-4.331,22.584-5.552
		c17.046-1.642,31.497,2.917,41.78,13.201c0.651,0.65,1.017,1.533,1.017,2.454v57.827c-0.009,0.923,0.271,2.098,0.555,2.418
		c0.012-0.004,0.037,0,0.07,0c0.08,0,0.114-0.009,0.114-0.009c0.218-0.223,0.52-1.451,0.512-2.351l-0.001-57.886
		c0-0.921,0.365-1.804,1.017-2.454c10.284-10.284,24.733-14.84,41.78-13.201c12.625,1.221,22.183,5.375,22.584,5.552
		c1.26,0.555,2.073,1.801,2.073,3.177v69.536c13.199,4.968,23.703,11.81,28.298,15.051c6.362-13.637,9.922-28.845,9.922-44.886
		c0-58.705-47.592-106.299-106.299-106.299c-58.706,0-106.299,47.594-106.299,106.299c0,16.041,3.56,31.249,9.922,44.886
		c4.596-3.241,15.099-10.083,28.298-15.051V-530.112z"/>
	<path fill="#14B1E7" d="M754.966-452.102c9.448-0.174,25.371-0.389,46.947-0.41v-3.14c-7.752-2.501-15.009-3.749-21.753-3.749
		C770.742-459.4,762.326-456.964,754.966-452.102z"/>
	<path fill="#FFFFFF" d="M808.854-460.576v-69.536c0-1.376-0.813-2.622-2.073-3.177c-0.401-0.177-9.959-4.331-22.584-5.552
		c-17.047-1.639-31.496,2.917-41.78,13.201c-0.651,0.65-1.017,1.533-1.017,2.454l0.001,57.886c0.008,0.899-0.294,2.128-0.511,2.351
		c0,0-0.035,0.009-0.115,0.009c-0.033,0-0.059-0.004-0.07,0c-0.283-0.32-0.563-1.495-0.555-2.418v-57.827
		c0-0.921-0.365-1.804-1.017-2.454c-10.283-10.284-24.734-14.843-41.78-13.201c-12.626,1.221-22.183,5.375-22.584,5.552
		c-1.26,0.555-2.073,1.801-2.073,3.177v69.536c-13.199,4.968-23.702,11.81-28.298,15.051c0.992,2.128,2.051,4.219,3.178,6.267
		c3.46-2.485,13-8.942,25.12-13.863v4.73c0,1.917,1.555,3.471,3.471,3.471c57.927,0,60.322-0.019,60.396-0.02
		c1.396-0.017,2.648-0.868,3.175-2.161s0.228-2.777-0.76-3.764c-15.009-15.009-35.459-19.14-59.34-12.051v-64.826
		c7.711-2.804,35.196-11.043,53.571,6.03l0.001,56.271c-0.018,0.775,0.018,4.779,2.555,7.378c1.319,1.351,3.052,2.064,5.011,2.064
		s3.69-0.714,5.01-2.063c2.538-2.599,2.573-6.603,2.557-7.296v-56.354c18.329-17.023,45.856-8.815,53.571-6.025v64.821
		c-23.884-7.09-44.332-2.958-59.341,12.051c-1.006,1.005-1.296,2.523-0.732,3.829c0.565,1.306,1.869,2.12,3.289,2.094
		c0.213-0.006,21.729-0.63,60.255-0.63c1.917,0,3.471-1.554,3.471-3.471v-4.079c12.121,4.921,21.66,11.378,25.12,13.863
		c1.127-2.048,2.186-4.139,3.178-6.267C832.558-448.767,822.054-455.608,808.854-460.576z M726.931-451.871
		c-7.774,0.005-21.846,0.01-47.293,0.01v-3.79C698.387-461.7,714.243-460.425,726.931-451.871z M801.913-452.512
		c-21.576,0.021-37.499,0.236-46.947,0.41c7.36-4.862,15.776-7.299,25.194-7.299c6.744,0,14.001,1.248,21.753,3.749V-452.512z"/>
</g>
<g>
	<path fill="#006288" d="M398.91-458.6c-16.926-18.366-39.607-55.549-17.261-78.412c10.352-10.593,22.598-13.745,34.484-8.876
		c8.066,3.305,14.819,9.776,19.596,17.203c9.419-6.772,21.787-10.471,32.922-9.801c16.633,1.025,26.914,11.518,26.83,27.383
		c-0.083,15.741-6.016,29.677-17.636,41.419c-10.073,10.18-24.142,18.68-43.012,25.985c-0.763,0.295-1.527,0.586-2.3,0.874
		c8.574,4.096,18.131,7.355,28.501,9.689c17.369,3.91,36.731,5.206,56.842,3.874c12.185-17.295,19.344-38.386,19.344-61.15
		c0-58.705-47.592-106.299-106.299-106.299c-58.706,0-106.299,47.594-106.299,106.299c0,22.727,7.136,43.784,19.284,61.064
		c25.096-3.855,49.848-8.561,71.588-15.142C409.292-448.654,403.735-453.363,398.91-458.6z"/>
	<path fill="#006288" d="M423.451-439.64c-23.019,7.565-49.258,12.639-74.751,16.603c19.496,23.765,49.088,38.927,82.222,38.927
		c32.638,0,61.833-14.713,81.332-37.863C477.755-420.491,446.894-426.683,423.451-439.64z"/>
	<path fill="#006288" d="M429.528-493.112c0.209,0.145,0.846,0.581,2.094-0.07c2.43-1.271,4.893-5.423,4.914-11.833
		c0.015-3.85-0.979-8.257-2.798-12.642c-3.353,3.798-5.618,8.217-6.192,13.062C426.73-497.688,428.104-494.093,429.528-493.112z"/>
	<path fill="#006288" d="M488.541-511.14c0.037-7.155-2.552-19.322-20.317-20.417c-9.76-0.607-20.928,2.857-29.106,8.978
		c2.827,5.982,4.38,12.181,4.36,17.589c-0.034,9.926-4.485,15.785-8.638,17.958c-3.149,1.651-6.521,1.518-9.249-0.363
		c-2.441-1.682-6.327-6.257-4.938-18.015c0.852-7.199,4.484-13.582,9.735-18.777c-4.071-6.598-9.936-12.429-16.887-15.277
		c-2.782-1.14-5.573-1.706-8.342-1.706c-6.41,0-12.705,3.034-18.547,9.011c-18.749,19.184,3.185,53.429,17.401,68.855
		c5.595,6.072,12.365,11.445,20.148,16.034C461.728-460.062,488.373-479.37,488.541-511.14z"/>
	<path fill="#FFFFFF" d="M461.035-433.135c-10.37-2.334-19.927-5.594-28.501-9.689c0.772-0.288,1.537-0.579,2.3-0.874
		c18.87-7.306,32.938-15.806,43.012-25.985c11.62-11.742,17.553-25.678,17.636-41.419c0.084-15.865-10.197-26.357-26.83-27.383
		c-11.135-0.67-23.503,3.028-32.922,9.801c-4.776-7.427-11.529-13.898-19.596-17.203c-11.887-4.869-24.133-1.717-34.484,8.876
		c-22.347,22.863,0.335,60.046,17.261,78.412c4.825,5.236,10.382,9.945,16.585,14.111c-21.74,6.581-46.492,11.286-71.588,15.142
		c1.521,2.163,3.119,4.27,4.793,6.31c25.493-3.964,51.732-9.037,74.751-16.603c23.442,12.957,54.304,19.148,88.803,17.666
		c1.976-2.346,3.854-4.775,5.623-7.287C497.767-427.929,478.404-429.225,461.035-433.135z M436.536-505.016
		c-0.021,6.41-2.484,10.562-4.914,11.833c-1.248,0.651-1.885,0.215-2.094,0.07c-1.425-0.98-2.798-4.576-1.982-11.482
		c0.574-4.846,2.84-9.265,6.192-13.062C435.557-513.272,436.551-508.865,436.536-505.016z M404.015-463.305
		c-14.217-15.427-36.15-49.672-17.401-68.855c5.842-5.977,12.137-9.011,18.547-9.011c2.769,0,5.56,0.566,8.342,1.706
		c6.951,2.849,12.815,8.68,16.887,15.277c-5.251,5.195-8.884,11.578-9.735,18.777c-1.39,11.758,2.496,16.333,4.938,18.015
		c2.728,1.881,6.1,2.015,9.249,0.363c4.152-2.173,8.604-8.032,8.638-17.958c0.02-5.408-1.533-11.606-4.36-17.589
		c8.179-6.12,19.347-9.585,29.106-8.978c17.766,1.095,20.354,13.262,20.317,20.417c-0.168,31.77-26.813,51.077-64.378,63.869
		C416.38-451.859,409.609-457.232,404.015-463.305z"/>
</g>
</svg>
