<?xml version="1.0" encoding="utf-8"?>
<!-- Generator: Adobe Illustrator 16.0.0, SVG Export Plug-In . SVG Version: 6.00 Build 0)  -->
<!DOCTYPE svg PUBLIC "-//W3C//DTD SVG 1.1//EN" "http://www.w3.org/Graphics/SVG/1.1/DTD/svg11.dtd">
<svg version="1.1" id="Ebene_1" xmlns="http://www.w3.org/2000/svg" xmlns:xlink="http://www.w3.org/1999/xlink" x="0px" y="0px"
	 width="340px" height="75px" viewBox="0 0 340 75" enable-background="new 0 0 340 75" xml:space="preserve">
<g>
	<g>
		<path fill="#642869" d="M21.926,31.168c0.318,0.396,0.356,0.949,0.098,1.389c-1.695,2.878-3.098,6.735-2.405,7.949
			c0.059,0.101,0.232,0.406,1.116,0.406c4.067,0,7.664-6.807,8.705-9.431c0.238-0.603,0.905-0.915,1.522-0.711
			c0.615,0.204,0.966,0.851,0.801,1.476c-0.018,0.064-1.15,4.346-2.354,8.765c1.633-1.403,3.449-2.861,5.468-4.368
			c0.119-0.09,0.243-0.185,0.367-0.286c-0.199-0.093-0.411-0.176-0.633-0.245c-0.072-0.021-0.147-0.042-0.22-0.062
			c-0.641-0.19-1.01-0.862-0.826-1.508c0.183-0.645,0.85-1.023,1.496-0.848c0.08,0.02,0.16,0.044,0.241,0.069
			c0.485,0.132,0.971,0.228,1.459,0.292c0.936-2.736,2.044-5.86,3.352-9.429c0.176-0.478,0.317-0.865,0.416-1.142
			c2.039-5.637,4.145-8.829,6.255-9.485c0.904-0.279,1.801-0.126,2.597,0.444c0.409,0.294,0.896,0.884,0.907,2.026
			c0.033,3.393-4.628,11.676-9.289,17.407c3.992-0.772,7.154-2.917,7.198-2.951c0.476-0.325,1.114-0.279,1.535,0.117
			c0.418,0.393,0.509,1.025,0.214,1.521c-1.393,2.323-3.083,6.413-2.289,7.811c0.075,0.132,0.305,0.538,1.444,0.538
			c4.245,0,7.315-6.129,8.325-8.958c0.085-0.259,0.143-0.413,0.15-0.437c0.228-0.628,0.915-0.959,1.548-0.742
			c0.633,0.217,0.974,0.899,0.768,1.535c-0.013,0.046-0.065,0.199-0.15,0.437c-0.912,2.716-1.69,6.891-0.636,8.056
			c0.302,0.336,0.896,0.396,1.76,0.182c4.838-1.205,9.777-2.709,14.115-4.289C74.551,16.358,57.942,0,37.501,0
			C16.854,0,0.105,16.691,0.008,37.314c6.302-1.918,20.433-6.495,20.585-6.546C21.076,30.613,21.606,30.771,21.926,31.168z"/>
		<path fill="#642869" d="M57.285,42.443c-0.661-0.733-1.033-1.767-1.121-3.123c-1.733,2.188-4.083,4.041-7.064,4.041
			c-2.122,0-3.116-0.969-3.576-1.78c-0.833-1.471-0.665-3.62,0.511-6.581c0.024-0.06,0.047-0.119,0.07-0.179
			c-1.879,0.824-4.364,1.632-7.059,1.763c0.4,0.641,0.708,1.369,0.922,2.184c1.333,5.072-1.382,12.355-3.86,14.792
			c-1.085,1.064-2.007,1.096-2.591,0.931c-0.478-0.135-0.874-0.468-1.116-0.944c-0.6-1.169-0.628-3.942,2.496-13.844
			c-2.643,2.042-4.853,3.944-6.697,5.695c-0.191,0.683-0.375,1.331-0.545,1.922c-0.122,0.43-0.279,1.14-0.46,1.961
			c-1.116,5.064-2.437,10.149-5.172,11.848c-0.607,0.377-1.266,0.568-1.943,0.568c-0.297,0-0.599-0.037-0.899-0.111
			c-1.067-0.267-1.816-1.101-2.057-2.292c-0.571-2.832,1.661-8.17,8.898-15.192c0.377-1.356,0.778-2.824,1.17-4.261
			c-1.744,1.953-3.93,3.521-6.457,3.521c-1.904,0-2.813-0.895-3.243-1.644c-1.137-1.992-0.057-5.31,1.026-7.704
			c-4.706,1.518-14.048,4.52-18.436,5.839C1.299,59.467,17.583,75,37.501,75c20.105,0,36.509-15.822,37.453-35.694
			c-4.203,1.495-8.897,2.907-13.498,4.056C59.203,43.922,57.944,43.173,57.285,42.443z"/>
		<path fill="#642869" d="M19.523,58.811c0.072,0.354,0.193,0.385,0.245,0.397c0.349,0.085,0.644,0.035,0.961-0.16
			c2.042-1.266,3.367-7.099,4.028-10.09C20.148,54.205,19.286,57.622,19.523,58.811z"/>
		<path fill="#642869" d="M37.258,40.341c-2.287,7.255-2.718,10.209-2.744,11.387c1.318-1.385,3.452-6.015,3.354-10.281
			c-0.018-0.791-0.111-1.501-0.284-2.126C37.476,39.662,37.367,40.003,37.258,40.341z"/>
		<path fill="#642869" d="M47.836,16.363c-0.072-0.036-0.132-0.052-0.186-0.052c-0.052,0-0.095,0.013-0.142,0.026
			c-0.933,0.29-2.716,2.553-4.677,7.979c-0.101,0.279-0.246,0.669-0.421,1.152c-0.434,1.186-1.059,2.892-1.77,4.886
			c1.075-1.452,2.147-3.041,3.157-4.692C47.165,20.154,47.955,17.118,47.836,16.363z"/>
	</g>
	<path fill="#FFFFFF" d="M75,37.499c0-0.271-0.014-0.537-0.021-0.804l0,0c-4.338,1.58-9.276,3.084-14.115,4.289
		c-0.863,0.215-1.458,0.154-1.76-0.182c-1.054-1.165-0.276-5.34,0.636-8.056c0.085-0.237,0.137-0.391,0.15-0.437
		c0.207-0.636-0.134-1.317-0.768-1.535c-0.633-0.217-1.32,0.113-1.548,0.742c-0.007,0.023-0.064,0.178-0.15,0.437
		c-1.01,2.829-4.08,8.958-8.325,8.958c-1.14,0-1.37-0.406-1.444-0.538c-0.793-1.397,0.896-5.487,2.289-7.811
		c0.294-0.496,0.204-1.129-0.214-1.521c-0.421-0.396-1.06-0.442-1.535-0.117c-0.044,0.034-3.206,2.178-7.198,2.951
		c4.661-5.73,9.322-14.014,9.289-17.407c-0.011-1.142-0.499-1.731-0.907-2.026c-0.796-0.571-1.692-0.724-2.597-0.444
		c-2.111,0.656-4.216,3.848-6.255,9.485c-0.098,0.277-0.24,0.664-0.416,1.142c-1.308,3.568-2.416,6.692-3.352,9.429
		c-0.488-0.064-0.974-0.16-1.459-0.292c-0.081-0.025-0.161-0.05-0.241-0.069c-0.646-0.176-1.312,0.203-1.496,0.848
		c-0.184,0.646,0.186,1.317,0.826,1.508c0.072,0.021,0.148,0.042,0.22,0.062c0.223,0.069,0.435,0.152,0.633,0.245
		c-0.124,0.102-0.248,0.196-0.367,0.286c-2.019,1.507-3.835,2.965-5.468,4.368c1.204-4.419,2.336-8.7,2.354-8.765
		c0.165-0.625-0.186-1.271-0.801-1.476c-0.617-0.204-1.284,0.108-1.522,0.711c-1.041,2.624-4.638,9.431-8.705,9.431
		c-0.884,0-1.057-0.306-1.116-0.406c-0.693-1.214,0.71-5.071,2.405-7.949c0.258-0.439,0.22-0.993-0.098-1.389
		c-0.32-0.397-0.85-0.555-1.333-0.4C20.44,30.82,6.31,35.396,0.008,37.314l-0.002,0.002C0.005,37.378,0,37.438,0,37.499
		c0,0.072,0.008,0.143,0.008,0.215c0.005,0.699,0.03,1.395,0.072,2.086c0,0.018,0,0.034,0.001,0.053h0.001
		c4.387-1.319,13.729-4.321,18.436-5.839c-1.083,2.395-2.163,5.712-1.026,7.704c0.429,0.749,1.338,1.644,3.243,1.644
		c2.527,0,4.713-1.568,6.457-3.521c-0.393,1.437-0.793,2.904-1.17,4.261c-7.237,7.022-9.47,12.36-8.898,15.192
		c0.24,1.191,0.989,2.025,2.057,2.292c0.3,0.074,0.602,0.111,0.899,0.111c0.677,0,1.336-0.191,1.943-0.568
		c2.736-1.698,4.057-6.783,5.172-11.848c0.181-0.821,0.338-1.531,0.46-1.961c0.17-0.591,0.354-1.239,0.545-1.922
		c1.845-1.751,4.054-3.653,6.697-5.695c-3.124,9.901-3.096,12.675-2.496,13.844c0.243,0.477,0.638,0.81,1.116,0.944
		c0.584,0.165,1.506,0.134,2.591-0.931c2.478-2.437,5.194-9.72,3.86-14.792c-0.214-0.814-0.522-1.543-0.922-2.184
		c2.695-0.131,5.18-0.938,7.059-1.763c-0.023,0.06-0.046,0.119-0.07,0.179c-1.175,2.961-1.343,5.11-0.511,6.581
		c0.459,0.812,1.454,1.78,3.576,1.78c2.981,0,5.331-1.853,7.064-4.041c0.088,1.356,0.46,2.39,1.121,3.123
		c0.659,0.729,1.917,1.479,4.171,0.918c4.6-1.148,9.295-2.561,13.498-4.056c0.001,0,0.001,0,0.001,0
		C74.983,38.706,75,38.104,75,37.499z M20.729,59.048c-0.317,0.195-0.612,0.245-0.961,0.16c-0.052-0.013-0.173-0.044-0.245-0.397
		c-0.238-1.188,0.625-4.605,5.234-9.853C24.097,51.949,22.771,57.782,20.729,59.048z M34.514,51.728
		c0.026-1.178,0.458-4.132,2.744-11.387c0.109-0.338,0.217-0.679,0.326-1.021c0.173,0.625,0.266,1.335,0.284,2.126
		C37.966,45.713,35.832,50.343,34.514,51.728z M42.41,25.468c0.176-0.483,0.321-0.873,0.421-1.152
		c1.961-5.426,3.744-7.689,4.677-7.979c0.046-0.013,0.09-0.026,0.142-0.026c0.054,0,0.114,0.016,0.186,0.052
		c0.119,0.754-0.671,3.791-4.039,9.299c-1.01,1.651-2.082,3.24-3.157,4.692C41.351,28.36,41.977,26.654,42.41,25.468z"/>
	<g>
		<path fill="#555555" d="M94.009,25.627c0.636,1.357,0.757,2.202,0.757,2.202h0.068c0,0,0.104-0.877,0.739-2.185l1.169-2.425h2.459
			l-3.233,6.759v3.371h-2.338v-3.371l-3.458-6.759h2.648L94.009,25.627z"/>
		<path fill="#555555" d="M99.581,28.292c0-3.405,1.806-5.28,4.798-5.28c2.992,0,4.815,1.875,4.815,5.28
			c0,3.389-1.823,5.263-4.815,5.263C101.387,33.556,99.581,31.682,99.581,28.292z M102.006,28.328c0,1.995,0.774,3.215,2.373,3.215
			c1.6,0,2.391-1.221,2.391-3.215c0-2.013-0.791-3.234-2.391-3.234C102.796,25.094,102.006,26.315,102.006,28.328z"/>
		<path fill="#555555" d="M119.307,23.219v6.741c0,2.735-1.926,3.595-4.179,3.595c-2.237,0-4.18-0.86-4.18-3.595v-6.741h2.34v6.088
			c0,1.445,0.377,2.304,1.84,2.304c1.479,0,1.857-0.859,1.857-2.321v-6.071H119.307z"/>
		<path fill="#555555" d="M123.296,33.35v-8.101h-2.769v-2.029h7.895v2.029h-2.822v8.101H123.296z"/>
		<path fill="#555555" d="M129.917,33.35v-10.13h2.339v3.973h3.886v-3.973h2.339v10.13h-2.339v-4.128h-3.886v4.128H129.917z"/>
		<path fill="#555555" d="M144.931,33.35v-10.13h6.604v2.029h-4.265v2.425h3.731v1.943h-3.731v3.732H144.931z"/>
		<path fill="#555555" d="M152.721,28.292c0-3.405,1.807-5.28,4.798-5.28c2.992,0,4.816,1.875,4.816,5.28
			c0,3.389-1.824,5.263-4.816,5.263C154.527,33.556,152.721,31.682,152.721,28.292z M155.146,28.328
			c0,1.995,0.774,3.215,2.373,3.215c1.6,0,2.39-1.221,2.39-3.215c0-2.013-0.79-3.234-2.39-3.234
			C155.937,25.094,155.146,26.315,155.146,28.328z"/>
		<path fill="#555555" d="M169.986,33.35c-0.309-0.241-0.43-0.619-0.531-1.049l-0.379-1.515c-0.207-0.859-0.603-1.014-1.376-1.014
			h-0.997v3.578h-2.339v-10.13h3.99c2.27,0,3.679,0.826,3.679,3.096c0,1.566-0.91,2.408-2.218,2.544v0.035
			c0.929,0.155,1.427,0.55,1.687,1.479l0.515,1.892c0.103,0.396,0.24,0.74,0.567,1.084H169.986z M166.703,27.846h1.496
			c0.929,0,1.444-0.361,1.444-1.324c0-0.86-0.482-1.324-1.444-1.324h-1.496V27.846z"/>
		<path fill="#555555" d="M186.256,23.219v6.741c0,2.735-1.926,3.595-4.179,3.595c-2.236,0-4.181-0.86-4.181-3.595v-6.741h2.34
			v6.088c0,1.445,0.378,2.304,1.841,2.304c1.479,0,1.857-0.859,1.857-2.321v-6.071H186.256z"/>
		<path fill="#555555" d="M194.408,28.121c0.566,0.774,0.842,1.359,0.842,1.359h0.07c0,0-0.053-0.861-0.053-2.15v-4.111h2.339v10.13
			h-2.133l-3.577-4.815c-0.652-0.86-0.963-1.498-0.963-1.498h-0.068c0,0,0.104,0.826,0.104,2.288v4.025h-2.34v-10.13h2.201
			L194.408,28.121z"/>
		<path fill="#555555" d="M200.255,33.35v-10.13h3.731c2.805,0,4.938,1.393,4.938,4.954c0,3.749-2.186,5.177-5.092,5.177H200.255z
			 M203.609,31.371c1.806,0,2.871-0.757,2.871-3.062c0-2.407-1.065-3.112-2.735-3.112h-1.151v6.174H203.609z"/>
		<path fill="#555555" d="M217.745,33.35h-6.793v-10.13h6.793v2.029h-4.453v2.012h3.92v1.944h-3.92v2.115h4.453V33.35z"/>
		<path fill="#555555" d="M225.553,33.35c-0.309-0.241-0.431-0.619-0.532-1.049l-0.378-1.515c-0.208-0.859-0.602-1.014-1.376-1.014
			h-0.997v3.578h-2.34v-10.13h3.99c2.27,0,3.679,0.826,3.679,3.096c0,1.566-0.91,2.408-2.218,2.544v0.035
			c0.929,0.155,1.428,0.55,1.687,1.479l0.515,1.892c0.104,0.396,0.242,0.74,0.567,1.084H225.553z M222.27,27.846h1.496
			c0.928,0,1.443-0.361,1.443-1.324c0-0.86-0.482-1.324-1.443-1.324h-1.496V27.846z"/>
		<path fill="#555555" d="M231.125,30.133c0.188,0.998,0.93,1.633,1.891,1.633c0.774,0,1.342-0.31,1.342-0.998
			c0-0.653-0.36-0.962-1.685-1.376c-2.322-0.739-3.286-1.616-3.286-3.354c0-2.287,1.79-3.043,3.562-3.043
			c2.081,0,3.628,0.705,3.834,2.631l-2.321,0.584c-0.086-0.894-0.757-1.289-1.462-1.289c-0.653,0-1.17,0.292-1.17,0.945
			c0,0.706,0.551,0.981,1.737,1.341c2.133,0.672,3.216,1.394,3.216,3.336c0,2.202-1.788,3.01-3.938,3.01
			c-1.994,0-3.336-0.653-3.852-2.477L231.125,30.133z"/>
		<path fill="#555555" d="M240.411,33.35v-8.101h-2.769v-2.029h7.895v2.029h-2.821v8.101H240.411z"/>
		<path fill="#555555" d="M252.021,31.234h-3.835l-0.723,2.115h-2.442l3.664-10.13h2.889l3.697,10.13h-2.51L252.021,31.234z
			 M248.838,29.29h2.495l-0.414-1.134c-0.583-1.669-0.791-2.89-0.791-2.89h-0.067c0,0-0.259,1.239-0.826,2.872L248.838,29.29z"/>
		<path fill="#555555" d="M262.545,28.121c0.567,0.774,0.843,1.359,0.843,1.359h0.069c0,0-0.051-0.861-0.051-2.15v-4.111h2.337
			v10.13h-2.132l-3.577-4.815c-0.653-0.86-0.963-1.498-0.963-1.498h-0.068c0,0,0.103,0.826,0.103,2.288v4.025h-2.339v-10.13h2.201
			L262.545,28.121z"/>
		<path fill="#555555" d="M268.393,33.35v-10.13h3.732c2.803,0,4.936,1.393,4.936,4.954c0,3.749-2.184,5.177-5.092,5.177H268.393z
			 M271.746,31.371c1.807,0,2.872-0.757,2.872-3.062c0-2.407-1.065-3.112-2.734-3.112h-1.151v6.174H271.746z"/>
		<path fill="#555555" d="M281.429,23.219v10.13h-2.339v-10.13H281.429z"/>
		<path fill="#555555" d="M289.854,28.121c0.567,0.774,0.843,1.359,0.843,1.359h0.07c0,0-0.053-0.861-0.053-2.15v-4.111h2.339v10.13
			h-2.134l-3.576-4.815c-0.653-0.86-0.963-1.498-0.963-1.498h-0.068c0,0,0.104,0.826,0.104,2.288v4.025h-2.34v-10.13h2.201
			L289.854,28.121z"/>
		<path fill="#555555" d="M304.216,27.949v5.4h-1.446l-0.377-1.136c-0.517,0.912-1.547,1.342-2.787,1.342
			c-2.632,0-4.522-1.669-4.522-5.228c0-3.389,1.857-5.315,4.954-5.315c2.028,0,3.457,0.945,4.126,2.563l-2.253,1.101
			c-0.326-1.067-1.015-1.599-1.96-1.599c-1.083,0-2.459,0.739-2.459,3.284c0,1.824,0.671,3.286,2.493,3.286
			c1.359,0,1.995-0.637,1.995-1.497v-0.343h-2.134v-1.858H304.216z"/>
	</g>
	<g>
		<path fill="#642869" d="M93.665,40.764v10.129h-2.339V40.764H93.665z"/>
		<path fill="#642869" d="M98.307,44.478c0.43-1.187,1.324-1.72,2.546-1.72c1.221,0,2.338,0.722,2.338,2.512v5.623h-2.305v-4.764
			c0-0.878-0.24-1.445-1.065-1.445c-0.74,0-1.444,0.414-1.444,1.842v4.367h-2.305v-7.944h1.96L98.307,44.478z"/>
		<path fill="#642869" d="M110.57,50.583c-0.671,0.346-1.497,0.517-2.442,0.517c-1.583,0-2.615-0.74-2.615-2.563V44.72h-1.152
			v-1.771h1.168v-1.687l2.305-0.275v1.962h2.356v1.771h-2.373v3.301c0,0.844,0.327,1.119,0.962,1.119
			c0.499,0,0.929-0.173,1.394-0.499L110.57,50.583z"/>
		<path fill="#642869" d="M116.589,48.244l1.961,0.671c-0.413,1.617-1.841,2.185-3.405,2.185c-2.27,0-3.836-1.496-3.836-4.06
			c0-2.734,1.479-4.282,3.871-4.282c2.252,0,3.354,1.479,3.354,3.526c0,0.344-0.035,0.705-0.103,1.031h-4.902
			c0.051,1.221,0.619,2.013,1.668,2.013C115.815,49.328,116.332,49.087,116.589,48.244z M116.332,46.043
			c0.017-0.104,0.017-0.172,0.017-0.275c0-0.739-0.43-1.307-1.255-1.307c-0.86,0-1.411,0.653-1.496,1.582H116.332z"/>
		<path fill="#642869" d="M125.446,45.321c-0.293-0.104-0.534-0.138-0.896-0.138c-0.911,0-2.028,0.446-2.028,2.081v3.628h-2.305
			v-7.944h1.995l0.275,2.183c0.344-1.376,1.117-2.476,3.216-2.354L125.446,45.321z"/>
		<path fill="#642869" d="M129.229,44.478c0.43-1.187,1.324-1.72,2.546-1.72c1.22,0,2.338,0.722,2.338,2.512v5.623h-2.305v-4.764
			c0-0.878-0.24-1.445-1.065-1.445c-0.74,0-1.444,0.414-1.444,1.842v4.367h-2.305v-7.944h1.96L129.229,44.478z"/>
		<path fill="#642869" d="M142.352,48.485c0,0.533,0.223,0.722,0.583,0.722c0.19,0,0.344-0.051,0.499-0.12v1.668
			c-0.327,0.207-0.757,0.293-1.308,0.293c-1.014,0-1.633-0.395-1.891-1.256c-0.36,0.98-1.221,1.308-2.305,1.308
			c-1.41,0-2.338-0.825-2.338-2.185c0-1.771,1.428-2.734,4.488-2.563v-0.755c0-0.688-0.292-1.101-0.929-1.101
			c-0.636,0-0.963,0.43-0.997,1.168l-2.287-0.43c0.12-1.685,1.547-2.477,3.371-2.477c1.978,0,3.113,0.861,3.113,2.632V48.485z
			 M140.081,47.591c-1.617-0.052-2.184,0.379-2.184,1.084c0,0.465,0.327,0.791,0.877,0.791c0.601,0,1.307-0.292,1.307-1.066V47.591z
			"/>
		<path fill="#642869" d="M150.107,50.583c-0.671,0.346-1.497,0.517-2.442,0.517c-1.583,0-2.615-0.74-2.615-2.563V44.72h-1.152
			v-1.771h1.169v-1.687l2.304-0.275v1.962h2.356v1.771h-2.373v3.301c0,0.844,0.327,1.119,0.962,1.119
			c0.499,0,0.929-0.173,1.394-0.499L150.107,50.583z"/>
		<path fill="#642869" d="M152.601,39.181c0.808,0,1.428,0.466,1.428,1.342c0,0.843-0.62,1.308-1.428,1.308
			c-0.773,0-1.395-0.465-1.395-1.308C151.206,39.646,151.827,39.181,152.601,39.181z M153.753,42.948v7.944h-2.305v-7.944H153.753z"
			/>
		<path fill="#642869" d="M155.402,46.902c0-2.699,1.531-4.145,3.853-4.145c2.305,0,3.837,1.445,3.837,4.145
			c0,2.684-1.532,4.197-3.837,4.197C156.934,51.1,155.402,49.586,155.402,46.902z M157.674,46.902c0,1.651,0.499,2.408,1.581,2.408
			c1.067,0,1.566-0.757,1.566-2.408c0-1.564-0.518-2.303-1.566-2.303C158.189,44.6,157.674,45.338,157.674,46.902z"/>
		<path fill="#642869" d="M166.978,44.478c0.429-1.187,1.323-1.72,2.546-1.72c1.221,0,2.338,0.722,2.338,2.512v5.623h-2.305v-4.764
			c0-0.878-0.239-1.445-1.066-1.445c-0.739,0-1.443,0.414-1.443,1.842v4.367h-2.305v-7.944h1.959L166.978,44.478z"/>
		<path fill="#642869" d="M180.101,48.485c0,0.533,0.223,0.722,0.584,0.722c0.189,0,0.343-0.051,0.498-0.12v1.668
			c-0.327,0.207-0.756,0.293-1.306,0.293c-1.016,0-1.635-0.395-1.894-1.256c-0.36,0.98-1.221,1.308-2.305,1.308
			c-1.408,0-2.338-0.825-2.338-2.185c0-1.771,1.428-2.734,4.488-2.563v-0.755c0-0.688-0.292-1.101-0.93-1.101
			c-0.635,0-0.961,0.43-0.997,1.168l-2.287-0.43c0.121-1.685,1.549-2.477,3.371-2.477c1.978,0,3.114,0.861,3.114,2.632V48.485z
			 M177.829,47.591c-1.617-0.052-2.184,0.379-2.184,1.084c0,0.465,0.326,0.791,0.877,0.791c0.603,0,1.307-0.292,1.307-1.066V47.591z
			"/>
		<path fill="#642869" d="M185.93,50.842c-0.448,0.12-0.878,0.206-1.325,0.206c-1.151,0-2.201-0.534-2.201-2.029v-9.614h2.305v8.944
			c0,0.498,0.31,0.687,0.723,0.687c0.207,0,0.412-0.033,0.618-0.12L185.93,50.842z"/>
		<path fill="#642869" d="M192.119,48.244l1.962,0.671c-0.413,1.617-1.841,2.185-3.405,2.185c-2.27,0-3.836-1.496-3.836-4.06
			c0-2.734,1.479-4.282,3.87-4.282c2.254,0,3.354,1.479,3.354,3.526c0,0.344-0.035,0.705-0.104,1.031h-4.902
			c0.053,1.221,0.62,2.013,1.668,2.013C191.347,49.328,191.863,49.087,192.119,48.244z M191.863,46.043
			c0.017-0.104,0.017-0.172,0.017-0.275c0-0.739-0.431-1.307-1.256-1.307c-0.86,0-1.411,0.653-1.496,1.582H191.863z"/>
		<path fill="#642869" d="M200.978,45.321c-0.294-0.104-0.533-0.138-0.896-0.138c-0.911,0-2.029,0.446-2.029,2.081v3.628h-2.304
			v-7.944h1.994l0.275,2.183c0.343-1.376,1.117-2.476,3.216-2.354L200.978,45.321z"/>
		<path fill="#642869" d="M212.259,40.764v7.189c0,2.304-1.601,3.146-3.544,3.146c-1.633,0-2.803-0.637-3.474-1.943l1.721-1.549
			c0.413,1.016,0.895,1.566,1.719,1.566c0.947,0,1.256-0.551,1.256-1.635v-6.775H212.259z"/>
		<path fill="#642869" d="M219.085,49.414c-0.275,1.083-0.997,1.686-2.459,1.686c-1.409,0-2.391-0.722-2.391-2.563v-5.588h2.306
			v4.935c0,0.946,0.291,1.479,1.082,1.479c0.793,0,1.428-0.618,1.428-2.149v-4.265h2.305v7.944h-1.995L219.085,49.414z"/>
		<path fill="#642869" d="M228.647,43.257c0.343-0.345,0.43-0.567,0.602-1.204l1.806,0.603c-0.087,0.773-0.792,1.307-1.445,1.495
			c0.241,0.379,0.361,0.861,0.361,1.411c0,1.841-1.615,2.734-3.645,2.734c-0.379,0-0.774-0.034-0.964-0.103
			c-0.275,0.172-0.379,0.396-0.379,0.653c0,0.274,0.224,0.481,0.637,0.481h2.27c1.789,0,2.804,0.963,2.804,2.339
			c0,2.27-2.338,2.855-4.609,2.855c-1.96,0-3.715-0.466-3.715-1.995c0-0.93,0.671-1.496,2.099-1.599
			c-0.79-0.053-1.289-0.706-1.289-1.412c0-0.618,0.412-1.307,1.341-1.563c-1.084-0.431-1.65-1.119-1.65-2.392
			c0-1.84,1.41-2.804,3.524-2.804C227.288,42.758,228.062,42.93,228.647,43.257z M226.343,52.99c1.599,0,2.201-0.291,2.201-0.928
			c0-0.481-0.292-0.671-0.98-0.671h-1.96c-0.653,0-1.119,0.224-1.119,0.688C224.484,52.699,225.121,52.99,226.343,52.99z
			 M226.394,46.782c0.791,0,1.222-0.431,1.222-1.221c0-0.842-0.431-1.237-1.222-1.237c-0.809,0.017-1.203,0.446-1.203,1.237
			C225.19,46.268,225.585,46.782,226.394,46.782z"/>
		<path fill="#642869" d="M236.404,48.244l1.96,0.671c-0.413,1.617-1.84,2.185-3.405,2.185c-2.27,0-3.835-1.496-3.835-4.06
			c0-2.734,1.479-4.282,3.87-4.282c2.253,0,3.354,1.479,3.354,3.526c0,0.344-0.034,0.705-0.104,1.031h-4.9
			c0.051,1.221,0.618,2.013,1.667,2.013C235.63,49.328,236.146,49.087,236.404,48.244z M236.146,46.043
			c0.017-0.104,0.017-0.172,0.017-0.275c0-0.739-0.43-1.307-1.256-1.307c-0.859,0-1.41,0.653-1.496,1.582H236.146z"/>
		<path fill="#642869" d="M242.268,44.478c0.43-1.187,1.324-1.72,2.547-1.72c1.221,0,2.338,0.722,2.338,2.512v5.623h-2.305v-4.764
			c0-0.878-0.241-1.445-1.066-1.445c-0.739,0-1.443,0.414-1.443,1.842v4.367h-2.306v-7.944h1.96L242.268,44.478z"/>
		<path fill="#642869" d="M254.342,39.404h2.303v11.488h-1.994l-0.292-1.376c-0.293,1.205-1.291,1.583-2.477,1.583
			c-1.755,0-3.165-1.394-3.165-4.007c0-2.718,1.272-4.335,3.544-4.335c1.014,0,1.874,0.482,2.081,1.238V39.404z M254.358,46.112
			c0-1.17-0.758-1.651-1.547-1.651c-0.913,0-1.79,0.653-1.79,2.528c0,1.496,0.67,2.339,1.754,2.339c0.791,0,1.583-0.584,1.583-1.737
			V46.112z"/>
		<path fill="#642869" d="M264.971,48.485c0,0.533,0.223,0.722,0.584,0.722c0.188,0,0.343-0.051,0.498-0.12v1.668
			c-0.327,0.207-0.756,0.293-1.307,0.293c-1.015,0-1.634-0.395-1.893-1.256c-0.359,0.98-1.22,1.308-2.304,1.308
			c-1.41,0-2.339-0.825-2.339-2.185c0-1.771,1.428-2.734,4.488-2.563v-0.755c0-0.688-0.292-1.101-0.93-1.101
			c-0.635,0-0.961,0.43-0.997,1.168l-2.286-0.43c0.12-1.685,1.548-2.477,3.37-2.477c1.978,0,3.114,0.861,3.114,2.632V48.485z
			 M262.699,47.591c-1.616-0.052-2.184,0.379-2.184,1.084c0,0.465,0.327,0.791,0.877,0.791c0.602,0,1.307-0.292,1.307-1.066V47.591z
			"/>
		<path fill="#642869" d="M271.951,49.414c-0.275,1.083-0.997,1.686-2.46,1.686c-1.409,0-2.39-0.722-2.39-2.563v-5.588h2.305v4.935
			c0,0.946,0.292,1.479,1.082,1.479c0.792,0,1.429-0.618,1.429-2.149v-4.265h2.305v7.944h-1.995L271.951,49.414z"/>
		<path fill="#642869" d="M277.506,48.296c0.173,0.86,0.791,1.187,1.549,1.187c0.637,0,1.084-0.224,1.084-0.688
			c0-0.446-0.311-0.654-1.016-0.825l-1.169-0.275c-1.393-0.362-2.03-1.152-2.03-2.356c0-2.011,1.6-2.58,3.233-2.58
			c1.892,0,3.027,0.688,3.147,2.237l-2.149,0.309c-0.086-0.637-0.447-0.843-1.101-0.843c-0.533,0-0.895,0.24-0.895,0.653
			c0,0.396,0.24,0.619,0.774,0.723l1.117,0.241c1.618,0.344,2.373,1.203,2.373,2.562c0,1.771-1.462,2.459-3.405,2.459
			c-1.96,0-3.096-0.55-3.404-2.046L277.506,48.296z"/>
		<path fill="#642869" d="M289.339,50.583c-0.671,0.346-1.496,0.517-2.44,0.517c-1.584,0-2.616-0.74-2.616-2.563V44.72h-1.152
			v-1.771h1.17v-1.687l2.304-0.275v1.962h2.356v1.771h-2.373v3.301c0,0.844,0.328,1.119,0.963,1.119c0.5,0,0.929-0.173,1.394-0.499
			L289.339,50.583z"/>
		<path fill="#642869" d="M296.837,48.485c0,0.533,0.224,0.722,0.585,0.722c0.189,0,0.343-0.051,0.498-0.12v1.668
			c-0.326,0.207-0.757,0.293-1.307,0.293c-1.016,0-1.634-0.395-1.892-1.256c-0.361,0.98-1.222,1.308-2.306,1.308
			c-1.409,0-2.338-0.825-2.338-2.185c0-1.771,1.428-2.734,4.488-2.563v-0.755c0-0.688-0.292-1.101-0.929-1.101
			c-0.636,0-0.963,0.43-0.997,1.168l-2.288-0.43c0.121-1.685,1.549-2.477,3.372-2.477c1.978,0,3.112,0.861,3.112,2.632V48.485z
			 M294.566,47.591c-1.616-0.052-2.184,0.379-2.184,1.084c0,0.465,0.326,0.791,0.877,0.791c0.602,0,1.307-0.292,1.307-1.066V47.591z
			"/>
		<path fill="#642869" d="M303.819,49.414c-0.275,1.083-0.997,1.686-2.46,1.686c-1.409,0-2.39-0.722-2.39-2.563v-5.588h2.304v4.935
			c0,0.946,0.292,1.479,1.083,1.479c0.792,0,1.427-0.618,1.427-2.149v-4.265h2.306v7.944h-1.995L303.819,49.414z"/>
		<path fill="#642869" d="M309.374,48.296c0.172,0.86,0.791,1.187,1.548,1.187c0.637,0,1.084-0.224,1.084-0.688
			c0-0.446-0.311-0.654-1.016-0.825l-1.17-0.275c-1.393-0.362-2.028-1.152-2.028-2.356c0-2.011,1.599-2.58,3.233-2.58
			c1.892,0,3.026,0.688,3.146,2.237l-2.149,0.309c-0.085-0.637-0.447-0.843-1.101-0.843c-0.534,0-0.894,0.24-0.894,0.653
			c0,0.396,0.24,0.619,0.772,0.723l1.118,0.241c1.617,0.344,2.374,1.203,2.374,2.562c0,1.771-1.462,2.459-3.405,2.459
			c-1.961,0-3.096-0.55-3.405-2.046L309.374,48.296z"/>
		<path fill="#642869" d="M322.583,48.761c-0.292,1.599-1.668,2.339-3.354,2.339c-2.305,0-3.835-1.496-3.835-4.146
			c0-2.648,1.53-4.196,3.853-4.196c1.892,0,3.096,1.016,3.216,2.614l-1.943,0.533c-0.12-0.843-0.517-1.342-1.29-1.342
			c-1.032,0-1.6,0.913-1.6,2.357c0,1.512,0.603,2.407,1.635,2.407c0.618,0,1.083-0.31,1.289-1.222L322.583,48.761z"/>
		<path fill="#642869" d="M326.297,44.461c0.411-1.17,1.254-1.703,2.477-1.703c1.221,0,2.338,0.722,2.338,2.512v5.623h-2.304v-4.764
			c0-0.878-0.241-1.445-1.066-1.445c-0.74,0-1.444,0.414-1.444,1.823v4.386h-2.305V39.404h2.305V44.461z"/>
	</g>
</g>
</svg>
